<svg xmlns="http://www.w3.org/2000/svg" width="1280" height="404.37" viewBox="0 0 1280 404.37">
  <defs>
    <style>
      .cls-1 {
        isolation: isolate;
      }

      .cls-2 {
        fill: #28328c;
      }

      .cls-25, .cls-3, .cls-8 {
        fill: #00238c;
      }

      .cls-15, .cls-4 {
        fill: #3250d2;
      }

      .cls-5 {
        fill: #14bef0;
      }

      .cls-6 {
        fill: #ffc828;
      }

      .cls-7, .cls-8 {
        opacity: 0.35;
      }

      .cls-11, .cls-15, .cls-23, .cls-24, .cls-25, .cls-7, .cls-8 {
        mix-blend-mode: multiply;
      }

      .cls-9 {
        fill: #dc1e14;
      }

      .cls-10 {
        fill: #6ccff6;
      }

      .cls-12 {
        fill: #4162ae;
      }

      .cls-13 {
        fill: #ffc534;
      }

      .cls-14 {
        fill: #f27821;
      }

      .cls-16, .cls-24 {
        fill: #0078c8;
      }

      .cls-17 {
        fill: #8965aa;
      }

      .cls-18 {
        fill: #4368d1;
      }

      .cls-19 {
        opacity: 0.39;
      }

      .cls-20 {
        fill: #fff;
      }

      .cls-21 {
        opacity: 0.31;
      }

      .cls-22 {
        opacity: 0.41;
      }

      .cls-23 {
        opacity: 0.71;
      }

      .cls-25 {
        opacity: 0.48;
      }

      .cls-26 {
        fill: #25a9e0;
      }
    </style>
  </defs>
  <title>PROVIDERS HOMEPAGE</title>
  <g class="cls-1">
    <g id="Layer_1" data-name="Layer 1">
      <rect class="cls-2" x="-203.37" y="-2.04" width="1686.99" height="406.49"/>
      <path class="cls-3" d="M776.13,359.69c82.63-1.07,175.9-2.39,203.72-.56,27,1.77,300-2.64,300-2.64l159.54-.84c10-.05,15.15.11,28.25.29,0,0-14.29-6.12-20.73-11.1-16.53-12.78-45.1-36.66-45.84-38.75-1-2.9-3.31-3.38-3.63-5.08s-.54-.27-1-2-3.27-1.23-3.87-3.29-7.18-6.59-9-7.65c-10.53-6-15.5-15.9-16.57-17.16-3.51-4.09-1.95.58-5.26-4.48-.57-.87-3.7-1.75-5.55-5.3-.5-1-3.3-2.29-4-3.38-1.78-2.82-2.56-.64-4.7-4-4.48-7-18.13-11.7-18.13-11.7L1305,216.83a10.75,10.75,0,0,0-4.67-2.31l-18.69-4.07a10.8,10.8,0,0,0-3.8-.14c-2.07.29-5.13.82-6.23,1.53-33.55,21.79-91.73,39-118.07,68.08-14.87,16.39-104,59.35-146.23,62.91-25.19,2.12-185.23-14.3-226.59-15.05-44.9-.81-123.36-1.75-222.14,18.63-.24.05-148.63,5.73-288.65,6-35.49.07-157-69-219.18-101.27C38.84,244.95,30,243,25.45,242.34a10.71,10.71,0,0,0-6,.92l-15,7.43c-.81.58-3.63,1-4.6,1.81a156.13,156.13,0,0,1-26.34,18.22,44.3,44.3,0,0,0-8.07,5.54,223.7,223.7,0,0,1-40.79,27C-83,307.07-84,318.56-92.6,322.71s-9.12,8.2-20.38,12.82c-13.49,5.53-42.95,27-42.95,27,7.67.11,5.55-.46,16.42-.53,50-.34,131.68-.68,138.88.64a10.05,10.05,0,0,0,1.86.19Z"/>
      <path class="cls-4" d="M-194.2,362.82s382.47-5.55,559.7-6.9c27.16-.21,161-1.12,332-2.29,7.48-.05,123.56,3.86,131.11,3.81,254-1.73,619.56-2.36,619.56-2.36l33.6,1.36L367.24,364.86l-554.52-2Z"/>
      <path class="cls-5" d="M1117.56,349.89a95.15,95.15,0,0,1,26.93-3c.37,0,1.37-30.31,1.74-30.3s4.56,30.79,5.07,30.82c-.19.9.09.87-.42,1.73-.08.13,1.74.36,1.74.36l.53,35.85-5.78,1s-2.67-6.59-2.89-6.24c-.73,1.13,2.65-25.28,2.42-24.08-.48,2.49.22,6.32-.22,8.82-1.2,6.76-2.23,13.2-3.12,20-2.84-3.57-10-5.07-13.35-2-1.37,1.25-2.3,2.92-3.66,4.18s-3.47,2.06-5.06,1.1c-1.41-.85-1.81-2.69-2.05-4.32a243.81,243.81,0,0,1-2.74-34.53"/>
      <path class="cls-6" d="M1233.93,110.39C1228,99,1210.79,92.55,1201,102.57c-5.64,5.76-7,15.42-3.79,22.7,3.64,8.31,13,12.71,21.81,12a18.38,18.38,0,0,0,14.93-26.87Z"/>
      <path class="cls-4" d="M1187,101.85a54.42,54.42,0,0,1-8.76-9c-1.55-2-4.89.16-3.32,2.2a58.91,58.91,0,0,0,9.42,9.73C1186.37,106.43,1189,103.47,1187,101.85Z"/>
      <path class="cls-4" d="M1203.34,79.11l.4,7.33c.14,2.56,4.12,2.35,4-.22l-.4-7.33C1207.18,76.33,1203.2,76.54,1203.34,79.11Z"/>
      <path class="cls-4" d="M1235.32,83.85a33.62,33.62,0,0,0-4.52,9.75c-.71,2.47,3.19,3.3,3.89.85a30.41,30.41,0,0,1,4.17-8.78C1240.31,83.55,1236.75,81.75,1235.32,83.85Z"/>
      <path class="cls-4" d="M1254.71,102.75a33.62,33.62,0,0,0-9.36,5.27c-2,1.59.66,4.54,2.67,3a30.41,30.41,0,0,1,8.51-4.69C1258.94,105.43,1257.09,101.89,1254.71,102.75Z"/>
      <path class="cls-4" d="M1256.29,132.82a33.62,33.62,0,0,0-9.47-5.08c-2.42-.85-3.48,3-1.07,3.84a30.41,30.41,0,0,1,8.52,4.67C1256.3,137.82,1258.3,134.36,1256.29,132.82Z"/>
      <path class="cls-4" d="M1178.79,129.48a33.62,33.62,0,0,0,10.52-2.18c2.4-.9.75-4.53-1.64-3.63a30.41,30.41,0,0,1-9.53,1.88C1175.58,125.65,1176.26,129.58,1178.79,129.48Z"/>
      <path class="cls-4" d="M270.33,156.84c-1.93,22-.16,36,1,58,.79,15-3,142.3,3.73,147.86,0,0,114.52.56,131.36-1,.1,0-.72-119.16-.88-123.79q-.73-21.39-2.65-42.71c-1-11.16.43-29.58-6.71-38.71-7.38-9.44-18-4.29-28.23-4.93-20.39-1.27-20.2,2.45-39.36,1.5-11.21-.55-22.74,1.25-33.89.12-8.58-.88-16.07.22-24.85.37"/>
      <path class="cls-4" d="M151.06,215c-1.66,15.77-.14,25.84.86,41.65.68,10.78-2.57,102.12,3.21,106.11,0,0,98.61.4,113.1-.7.08,0-.62-85.52-.76-88.84q-.63-15.35-2.28-30.65c-.87-8,.37-21.23-5.78-27.78-6.35-6.77-15.48-3.08-24.31-3.54-17.56-.91-17.39,1.76-33.89,1.08-9.65-.4-19.58.9-29.18.08-7.38-.63-13.83.16-21.39.27"/>
      <path class="cls-4" d="M408.46,213.4c-1.81,15.77-.15,25.84.94,41.65.74,10.78-2.8,102.12,3.5,106.11,0,0,107.33.4,123.1-.7.09,0-.68-85.52-.82-88.84q-.69-15.35-2.49-30.65c-.94-8,.4-21.23-6.29-27.78-6.91-6.77-16.85-3.08-26.45-3.54-19.11-.91-18.93,1.76-36.89,1.08-10.5-.4-21.31.9-31.76.08-8-.63-15.06.16-23.29.27"/>
      <path class="cls-3" d="M278.35,168.29c.08,6.7,1.2,16,1.57,20.4,5.36.29,14.17.38,19.73.2,1.38-6.28.08-14.25-1.35-20.55Z"/>
      <path class="cls-3" d="M308.31,168.79c.08,6.7,1.2,16,1.57,20.4,5.36.29,14.17.38,19.73.2,1.38-6.28.08-14.25-1.35-20.55Z"/>
      <path class="cls-3" d="M280.43,205.4c.31,6.7.42,14.06.09,20.33,19.88.29,61.38.18,82,0-.21-8.74.15-14.21-3-20.85Z"/>
      <path class="cls-3" d="M368.55,205.65c.08,6.7,1.2,16,1.57,20.4,5.36.29,14.17.38,19.73.2,1.38-6.28.08-14.25-1.35-20.55Z"/>
      <path class="cls-3" d="M288.11,279.5c.31,6.7.42,14.06.09,20.33,19.88.29,61.38.18,82,0-.21-8.74.15-14.21-3-20.85Z"/>
      <path class="cls-3" d="M376.23,279.75c.08,6.7,1.2,16,1.57,20.4,5.36.29,14.17.38,19.73.2,1.38-6.28.08-14.25-1.35-20.55Z"/>
      <path class="cls-3" d="M337.6,169.26c.08,6.7,1.2,16,1.57,20.4,5.36.29,14.17.38,19.73.2,1.38-6.28.08-14.25-1.35-20.55Z"/>
      <path class="cls-3" d="M367.29,168.79c.08,6.7,1.2,16,1.57,20.4,5.36.29,14.17.38,19.73.2,1.38-6.28.08-14.25-1.35-20.55Z"/>
      <path class="cls-2" d="M422.72,241.46c11.52-.06,27.46-.83,35.09-1.09a76.47,76.47,0,0,0,.34-13.63c-10.79-1-24.51-.05-35.33.93Z"/>
      <path class="cls-2" d="M461.95,240.06c18.8-.06,44.8-.83,57.25-1.09a47.1,47.1,0,0,0,.55-13.63c-17.61-1-40-.05-57.64.93Z"/>
      <path class="cls-2" d="M422.72,287.58c11.52-.06,27.46-.83,35.09-1.09a76.47,76.47,0,0,0,.34-13.63c-10.79-1-24.51-.05-35.33.93Z"/>
      <path class="cls-2" d="M461.95,286.17c18.8-.06,44.8-.83,57.25-1.09a47.1,47.1,0,0,0,.55-13.63c-17.61-1-40-.05-57.64.93Z"/>
      <g class="cls-7">
        <path class="cls-3" d="M424.11,263.9c21.12-.06,52.22.11,66.19-.16.92-3.88-.7-11.22-1.26-15.23-19.78-1-44.91-.06-64.75,1Z"/>
      </g>
      <path class="cls-3" d="M283.87,243.64c.08,6,1.2,14.31,1.57,18.29,5.36.26,14.17.34,19.73.18,1.38-5.63.08-12.77-1.35-18.42Z"/>
      <path class="cls-3" d="M313.83,244.09c.08,6,1.2,14.31,1.57,18.29,5.36.26,14.17.34,19.73.18,1.38-5.63.08-12.77-1.35-18.42Z"/>
      <path class="cls-3" d="M339.34,328c.08,11.49,1.2,27.39,1.57,35a160.34,160.34,0,0,0,19.73.34c1.38-10.77.08-24.45-1.35-35.25Z"/>
      <path class="cls-3" d="M315.68,327.6c.08,11.49,1.2,27.39,1.57,35a160.34,160.34,0,0,0,19.73.34c1.38-10.77.08-24.45-1.35-35.25Z"/>
      <path class="cls-3" d="M475.83,342.59c.06,6.05.88,14.43,1.16,18.44,4,.26,10.46.34,14.55.18,1-5.67.06-12.88-1-18.57Z"/>
      <path class="cls-3" d="M458.42,342.59c.06,6.05.88,14.43,1.16,18.44,4,.26,10.46.34,14.55.18,1-5.67.06-12.88-1-18.57Z"/>
      <path class="cls-3" d="M196.58,324.71c.14,12.44,2,29.64,2.63,37.88,9,.54,23.73.7,33,.37,2.31-11.65.13-26.45-2.26-38.14Z"/>
      <path class="cls-3" d="M343.12,244.52c.08,6,1.2,14.31,1.57,18.29,5.36.26,14.17.34,19.73.18,1.38-5.63.08-12.77-1.35-18.42Z"/>
      <path class="cls-3" d="M372.81,244.09c.08,6,1.2,14.31,1.57,18.29,5.36.26,14.17.34,19.73.18,1.38-5.63.08-12.77-1.35-18.42Z"/>
      <path class="cls-8" d="M514.12,254.93c.36-1.77,1.47-4.41.23-6.07s-4.61-1.65-6.91-1.74a62.64,62.64,0,0,0-10.38.45c-2.06.26-2.77,1.85-2.31,3a40.69,40.69,0,0,0-.17,12.44c.28,2,3.06,2.36,4.57,1.47,3.8,1,11,.31,12.91-2.37C513.5,260.13,513.66,257.18,514.12,254.93Z"/>
      <g class="cls-7">
        <path class="cls-3" d="M426.52,311c21.12-.06,52.22.11,66.19-.16.92-3.88-.7-11.22-1.26-15.23-19.78-1-44.91-.06-64.75,1Z"/>
      </g>
      <path class="cls-8" d="M516.52,302c.36-1.77,1.47-4.41.23-6.07s-4.61-1.65-6.91-1.74a62.64,62.64,0,0,0-10.38.45c-2.06.26-2.77,1.85-2.31,3a40.69,40.69,0,0,0-.17,12.44c.28,2,3.06,2.36,4.57,1.47,3.8,1,11,.31,12.91-2.37C515.9,307.2,516.06,304.26,516.52,302Z"/>
      <g class="cls-7">
        <path class="cls-3" d="M427.41,335.7c21.12-.06,52.22.11,66.19-.16.92-3.88-.7-11.22-1.26-15.23-19.78-1-44.91-.06-64.75,1Z"/>
      </g>
      <path class="cls-8" d="M517.42,326.73c.36-1.77,1.47-4.41.23-6.07s-4.61-1.65-6.91-1.74a62.64,62.64,0,0,0-10.38.45c-2.06.26-2.77,1.85-2.31,3a40.69,40.69,0,0,0-.17,12.44c.28,2,3.06,2.36,4.57,1.47,3.8,1,11,.31,12.91-2.37C516.8,331.93,517,329,517.42,326.73Z"/>
      <path class="cls-2" d="M157.74,243.16c11.52-.06,27.46-.83,35.09-1.09a76.47,76.47,0,0,0,.34-13.63c-10.79-1-24.51-.05-35.33.93Z"/>
      <path class="cls-2" d="M197,241.76c18.8-.06,44.8-.83,57.25-1.09a47.1,47.1,0,0,0,.55-13.63c-17.61-1-40-.05-57.64.93Z"/>
      <path class="cls-2" d="M165,288.25c11.52-.06,27.46-.83,35.09-1.09a76.47,76.47,0,0,0,.34-13.63c-10.79-1-24.51-.05-35.33.93Z"/>
      <path class="cls-2" d="M204.19,286.84c18.8-.06,44.8-.83,57.25-1.09a47.1,47.1,0,0,0,.55-13.63c-17.61-1-40-.05-57.64.93Z"/>
      <g class="cls-7">
        <path class="cls-3" d="M166.36,264.57c21.12-.06,52.22.11,66.19-.16.92-3.88-.7-11.22-1.26-15.23-19.78-1-44.91-.06-64.75,1Z"/>
      </g>
      <path class="cls-8" d="M256.37,255.6c.36-1.77,1.47-4.41.23-6.07s-4.61-1.65-6.91-1.74a62.64,62.64,0,0,0-10.38.45c-2.06.26-2.77,1.85-2.31,3a40.69,40.69,0,0,0-.17,12.44c.28,2,3.06,2.36,4.57,1.47,3.8,1,11,.31,12.91-2.37C255.74,260.8,255.91,257.85,256.37,255.6Z"/>
      <g class="cls-7">
        <path class="cls-3" d="M168.76,311.64c21.12-.06,52.22.11,66.19-.16.92-3.88-.7-11.22-1.26-15.23-19.78-1-44.91-.06-64.75,1Z"/>
      </g>
      <path class="cls-8" d="M258.77,302.67c.36-1.77,1.47-4.41.23-6.07s-4.61-1.65-6.91-1.74a62.64,62.64,0,0,0-10.38.45c-2.06.26-2.77,1.85-2.31,3a40.69,40.69,0,0,0-.17,12.44c.28,2,3.06,2.36,4.57,1.47,3.8,1,11,.31,12.91-2.37C258.15,307.87,258.31,304.93,258.77,302.67Z"/>
      <path class="cls-3" d="M314,136.66c-6,17.63,19.76,36.36,31.19,17.58,5.81-9.55.09-23.17-9.79-27-12.33-4.73-18.87,1.41-21.4,9.38"/>
      <path class="cls-9" d="M327.83,135c0,1.36.93,4.44.43,5.52-.25.53-3.59.15-5.36,1.28s-1.75,4.32.54,4.56c.47,0,4.05.22,4.05.22,1,2.91-1.18,6.75,1.94,7.17,5.35.72,3.37-5.17,3.42-7.68a43.87,43.87,0,0,0,5.27,0c.86-.06,1.06-4.67.13-4.72a47.56,47.56,0,0,1-5.43-.61c.09-.75.05-6-.79-6-.5,0-3.42-.64-4.21.25"/>
      <path class="cls-4" d="M85.21,134a4.8,4.8,0,0,0-4.63-2.5,6.09,6.09,0,0,0-1.86-2.27c-.33-4-3.54-7.8-7.72-7.49a14.23,14.23,0,0,0-8.41-7.34,9.21,9.21,0,0,0-4-.4,8.64,8.64,0,0,0-9.45,2.44,18.49,18.49,0,0,0-3.52,7.37c-.28,1-.56,2-.81,3a7.08,7.08,0,0,0-7.32,1.53,6.4,6.4,0,0,0,0,9.15A8.71,8.71,0,0,0,46,139.19c4.65,6.68,16.49,6.62,22.53.62l.21-.05A10.3,10.3,0,0,0,74,140.87a11.73,11.73,0,0,0,2.58.87,6.4,6.4,0,0,0,1.14,1.19c3.83,3.07,8.89.66,10.42-3.52C89,137.21,87.32,134.67,85.21,134ZM62,130.45c.18,0,1.24.28.13.25A1.53,1.53,0,0,1,62,130.45Zm-18.44.19c-.74.16-.5-.6,0,0Z"/>
      <path class="cls-3" d="M597.47,248.52c.93-5.27,19.23-2.25,24.76-1.84,6.13.46,11.6-.6,17.77-.24,6.91.4,27.53-6.13,28,.31.33,4.2.56,12.26.83,17.42.31,5.93,3.38,26.51-1.25,30.83-4.35,4.06-19.74,3-25.51,3-8.84,0-31.84.45-42,.29,0,0-3-.13-2.67-10.48s0-33.16,0-33.16A18.27,18.27,0,0,1,597.47,248.52Z"/>
      <path class="cls-4" d="M575.72,277c1.5-8.52,31.07-3.64,40-3,9.91.75,18.75-1,28.72-.39,11.16.65,44.49-9.91,45.3.5.53,6.78.91,19.81,1.35,28.16.5,9.59-1,54.65-1.33,54.14,0,0-32.59.49-41.91.49-14.29,0-51.46.73-67.81.48,0,0-4.78-.22-4.32-16.93s0-53.59,0-53.59A29.53,29.53,0,0,1,575.72,277Z"/>
      <path class="cls-10" d="M641.56,328c-9.16,3.36-20.69,2.71-30.39,3-3.78.12-19.32.65-20.64-.64s-.91-5.25-1.12-6.94c-.52-4.18-.32-8.26-1-12.49-1-6.17-3.22-10.84,3.25-12.73,7.36-2.14,15.55-1.08,23.1-1.91,5.47-.6,24.5-1.32,26,.61.77,1,.42,4.93.72,6.5"/>
      <polygon class="cls-9" points="633.88 270.99 629.5 270.72 629.27 252.47 633.52 251.15 633.88 270.99"/>
      <polygon class="cls-9" points="622.45 264.37 622.46 259.99 640.66 258.7 642.23 262.87 622.45 264.37"/>
      <g class="cls-11">
        <path class="cls-12" d="M650.37,357c-3.6-9.8-2.9-22.13-3.23-32.5-.13-4-.7-20.66.68-22.07s5.62-1,7.42-1.19c4.47-.55,8.83-.35,13.36-1.12,6.59-1.12,11.59-3.45,13.61,3.47,2.29,7.87,1.16,16.63,2,24.7.64,5.85,1.41,26.2-.65,27.76-1.08.82-5.28.45-6.95.77"/>
      </g>
      <rect class="cls-13" x="653.39" y="326.04" width="7.99" height="7.99" rx="3.99" ry="3.99"/>
      <path class="cls-3" d="M592.09,289.87l-.08,0h0a8.94,8.94,0,0,1-.12-1.87.35.35,0,0,0,.31.08,3,3,0,0,0,2-3.87,2,2,0,0,0-3.54-.39.4.4,0,0,0,.31.6c.07,1.17.14,2.33.22,3.5.06.84-.15,2.24.54,2.84a.39.39,0,0,0,.47,0,.46.46,0,0,0,.23-.45A.39.39,0,0,0,592.09,289.87Zm-.47-6a1.27,1.27,0,0,1,.85-.18,1.23,1.23,0,0,1,1,1.22A2.13,2.13,0,0,1,592,287.3a.38.38,0,0,0-.16.07s0-.05,0-.07Q591.72,285.58,591.62,283.85Z"/>
      <path class="cls-3" d="M600.47,288.8a.4.4,0,0,0-.14-.44l-.08,0-.12,0a9.48,9.48,0,0,1,0-1.24l-.05-1.58a.39.39,0,0,0,0-.44l-.1-2.86c0-.49-.79-.55-.77-.05l.1,2.92a7.13,7.13,0,0,1-2.4.61.31.31,0,0,0-.26.15l-.29-3c0-.49-.81-.34-.76.15l.66,6.77c0,.43.59.35.74.05l.27-.54c.14-.27-.09-.47-.33-.48l-.25-2.54a.39.39,0,0,0,.36.17,7.62,7.62,0,0,0,2.28-.54l0,.64c0,.75-.22,2,.34,2.61a.4.4,0,0,0,.46.1A.49.49,0,0,0,600.47,288.8Z"/>
      <path class="cls-3" d="M605.27,289.67a14,14,0,0,0-1.6-7.07.37.37,0,0,0-.16-.16l0-.15c.15-.47-.58-.73-.73-.25a28,28,0,0,0-1.09,5.18.42.42,0,0,0-.05.41c-.07.68-.12,1.36-.13,2.05a.39.39,0,0,0,.75.15l.27-.78a.35.35,0,0,0-.18-.45c0-.27,0-.53.07-.79a4.15,4.15,0,0,0,1.89-.62,13.19,13.19,0,0,1,.16,2.43C604.48,290.11,605.25,290.17,605.27,289.67Zm-1.15-3.24a3.31,3.31,0,0,1-1.58.61,27.38,27.38,0,0,1,.69-3.59,13.35,13.35,0,0,1,1,2.93Z"/>
      <path class="cls-3" d="M610.49,289.2c.08-.49-.69-.54-.77-.05l-.09.18a14.57,14.57,0,0,0-2.07-3.08c1.33-.79,3.79-2.5,2.74-4-.87-1.21-3.54-.82-4,.54a.35.35,0,0,0,0,.21,50.41,50.41,0,0,0,.19,6.38c0,.43.77.39.76,0l0-1.11a.38.38,0,0,0-.08-.22c0-.4,0-.8-.05-1.2a14.05,14.05,0,0,1,2.2,3.48.39.39,0,0,0,.6.13A1.94,1.94,0,0,0,610.49,289.2ZM607,283a1.78,1.78,0,0,1,1.49-.61q.66-.24.7.57.68.73-.27,1.21a9.47,9.47,0,0,1-1.94,1.48C607,284.79,607,283.9,607,283Z"/>
      <path class="cls-3" d="M615.75,281.93a11.57,11.57,0,0,0-1.62,2.64l-1.27-2c-.25-.4-.89-.11-.72.28a.38.38,0,0,0,0,.06,27.75,27.75,0,0,0-.22,6.1c0,.42.6.36.74.05a2.72,2.72,0,0,0,.27-1.34.4.4,0,0,0-.32-.38,27,27,0,0,1,.2-3.45l1,1.56-.09.26a.39.39,0,0,0,.64.4c.3.08.66-.19.46-.51l-.14-.23a11,11,0,0,1,1.55-2.74.35.35,0,0,0,.12-.13l.07-.13A.39.39,0,0,0,615.75,281.93Z"/>
      <path class="cls-3" d="M617.85,289.42l-.54-7.63c0-.49-.79-.34-.76.15l.54,7.63C617.13,290.06,617.88,289.91,617.85,289.42Z"/>
      <path class="cls-3" d="M623.07,288.36a12.56,12.56,0,0,0-1.82-6.26c-.24-.4-.88-.12-.71.28a.39.39,0,0,0-.67.1,26.77,26.77,0,0,0-1.62,6.44c-.06.49.71.54.77.05.1-.85.26-1.68.45-2.5a.33.33,0,0,0,.47.14,3.52,3.52,0,0,1,1.93-.48.39.39,0,0,0,.14,0,11.62,11.62,0,0,1,.29,2.2C622.31,288.8,623.08,288.86,623.07,288.36Zm-3.46-2.44,0,0a26.25,26.25,0,0,1,1-3.2.35.35,0,0,0,0-.2,12.1,12.1,0,0,1,1.23,2.83A4.25,4.25,0,0,0,619.6,285.92Z"/>
      <path class="cls-3" d="M628.94,287.23a2.25,2.25,0,0,1-3.42-1.4,3.3,3.3,0,0,1,.12-2c.32-.87,1.47-2.06,2.3-.93.29.4.88-.1.59-.5a1.82,1.82,0,0,0-2.67-.23,3.84,3.84,0,0,0-1.18,3.23,3.06,3.06,0,0,0,4.77,2.38C629.84,287.52,629.34,286.94,628.94,287.23Z"/>
      <path class="cls-3" d="M633.73,287.67a.37.37,0,0,0-.27-.29c0-.71-.08-1.7-.08-1.81s0-.29,0-.44a.4.4,0,0,0,0-.39,4.76,4.76,0,0,1,.39-1.46c.42-.92,1.29-1.47,1.31-2.53,0-.49-.76-.55-.77-.05,0,.83-.95,1.55-1.27,2.27a5,5,0,0,0-.26.78,20,20,0,0,1-1.37-2.81c-.18-.46-.88-.13-.69.33a20.49,20.49,0,0,0,1.87,3.61c0,.12,0,.25,0,.37,0,.8-.25,2.39.45,3a.39.39,0,0,0,.47,0A.49.49,0,0,0,633.73,287.67Z"/>
      <g>
        <path class="cls-4" d="M54.86,321.45c-1.15,13.16-.1,21.56.6,34.76.47,9,.7,10.28,1.13,17.46,0,0,26.73.15,49-.05,0,0-1.47-7.73,6.31-7.94,6.41-.17,8.21,7.75,8.21,7.75,6.49-.09,8.08-.07,10.38-.28.06,0-.43-.34-.53-3.11q-.44-12.81-1.59-25.58c-.6-6.68.25-17.71-4-23.18-4.42-5.65-64.48-1.85-69.74-1.76"/>
        <path class="cls-4" d="M49.49,346.28c-3.2,0-10.11-1.31-12.86.3-5.27,3.08-2.53,10.21-6.2,14.31-1.93,2.15-8.62-1.56-7.54,12.77,0,0,11.18-.38,14.06-.44-.94-10.53,13.44-9.66,11.71.39a21.69,21.69,0,0,0,5.63-1C53.06,363.89,54,355,52.67,346.2Z"/>
        <path class="cls-14" d="M58.6,319.25l9.59-.38s0,.37-.12-5.4-9.24-7.65-9.72.27Z"/>
        <g class="cls-11">
          <path class="cls-5" d="M76.45,337.33C70.54,354.62,95.83,373,107,354.57c5.7-9.36.09-22.72-9.6-26.44-12.1-4.64-18.51,1.39-21,9.2"/>
        </g>
        <g class="cls-11">
          <path class="cls-3" d="M107.43,372.3c-1.87,5.48,6.14,11.3,9.69,5.46,1.81-3,0-7.2-3-8.38-3.83-1.47-5.87.44-6.65,2.91"/>
        </g>
        <g class="cls-11">
          <path class="cls-3" d="M39.48,370.84c-2.89,3.85,2,10.52,6.27,6.81,2.19-1.88,1.87-5.69-.26-7.41-2.66-2.15-4.75-1.16-6,.6"/>
        </g>
        <path class="cls-9" d="M89.42,335.41c0,1.53,1.05,5,.48,6.22-.28.6-4,.16-6,1.44s-2,4.86.61,5.13c.53.05,4.56.24,4.56.24,1.13,3.28-1.33,7.59,2.18,8.07,6,.81,3.79-5.81,3.84-8.64a49.35,49.35,0,0,0,5.93,0c1-.07,1.19-5.26.14-5.31a53.5,53.5,0,0,1-6.11-.69c.1-.84.06-6.72-.89-6.79-.56,0-3.85-.72-4.73.28"/>
        <polygon class="cls-2" points="36.23 350.04 36.34 359.71 50.78 360.12 50.58 349.52 36.23 350.04"/>
        <path class="cls-4" d="M54.14,314.41a18.32,18.32,0,0,0-4.78.45c-1.61.36-1.33,2.93.3,2.57a18.32,18.32,0,0,1,4.78-.45C56.1,316.93,55.79,314.36,54.14,314.41Z"/>
        <path class="cls-4" d="M56,307.41a48.36,48.36,0,0,1-5.42-2.55c-1.46-.8-2.46,1.59-1,2.38A48.33,48.33,0,0,0,55,309.79C56.55,310.4,57.56,308,56,307.41Z"/>
        <path class="cls-4" d="M61.28,303.29,59,297.66a1.29,1.29,0,0,0-2.4,1l2.24,5.63A1.29,1.29,0,0,0,61.28,303.29Z"/>
        <path class="cls-4" d="M70.33,298.63a14.15,14.15,0,0,1-2.27,2.51l-2.54,2.56c-1.17,1.18.88,2.75,2,1.58l2.54-2.56a14.16,14.16,0,0,0,2.27-2.51C73.22,298.8,71.19,297.2,70.33,298.63Z"/>
        <path class="cls-4" d="M76.92,305.44c-2.35,1.14-3.31,1.16-5.66,2.3-1.49.72-.53,3.12,1,2.4,2.35-1.14,3.31-1.16,5.66-2.3C79.38,307.12,78.42,304.71,76.92,305.44Z"/>
        <path class="cls-4" d="M78.47,313.68c-2.6-.19-2.18-.26-4.78-.46-1.65-.12-2,2.44-.36,2.56,2.6.19,2.18.26,4.78.46C79.76,316.36,80.13,313.8,78.47,313.68Z"/>
      </g>
      <path class="cls-6" d="M267.47,258.53q-1.22-12.94-3-25.81c-.95-6.72-1.43-14-7.19-18.47-5.6-4.38-12.93-4.81-19.75-4.39-8.65.54-17.26,1.38-25.92,1.82q-29.71,1.53-59.46.25c-1.28-.05-1.57,1.92-.29,2q24.55,1,49.13.23,12.34-.42,24.65-1.33c8.05-.59,17.09-2.49,24.94.15a15.94,15.94,0,0,1,8.37,5.94c2.17,3.28,2.56,7.33,3.12,11.13q1.81,12.37,3.07,24.82,2.5,24.64,2.83,49.43.38,28.31-2.1,56.56c-.11,1.28,1.87,1.57,2,.29A568.71,568.71,0,0,0,267.47,258.53Z"/>
      <path class="cls-6" d="M533.61,249.13l-.49-13.45a74.67,74.67,0,0,0-.84-11.13c-1.14-6-4.45-10.9-10.57-12.64a38.57,38.57,0,0,0-10.18-1.06l-13.9-.14-27.3-.27c-20.68-.2-41.37-.58-62-.08-1.29,0-1,2,.23,2,17.57-.43,35.14-.19,52.7,0s35.08,0,52.59.54c3.62.12,7.48.44,10.66,2.36s4.9,5.26,5.68,8.83a57.83,57.83,0,0,1,.92,10.34l.47,13,1.92,52.82L535.65,360c0,1.29,2,1,2-.23Z"/>
      <g>
        <g class="cls-11">
          <path class="cls-4" d="M933.36,316.55c-2.18,2.07-6.85.43-8.83-1.65-1.59-1.67-1.68-2.92-1.62-5.11.06-2,1.7-3.39,1.83-4.66.49-4.61-4-6.26.24-11.19,1.3-1.49,2.93-2.1,4.48-3.05,1.87-1.15,3.09-2.57,5-3.87a13.89,13.89,0,0,1,11.19-1.45c5.26,1.84,6.73,5.81,7.54,10.46.67,3.85,3.84,6.49,4.34,10.46a12.47,12.47,0,0,1-3.54,10c-3.13,3.25-7.37,4.13-11.6,3.33-2.11-.4-3.57-2.52-5-2.87-1.65-.39-3.26.52-4.7.32"/>
        </g>
        <path class="cls-4" d="M952,325.66c-.6.59-1.9.12-2.45-.47a1.71,1.71,0,0,1-.45-1.46c0-.56.47-1,.51-1.33.14-1.32-1.12-1.79.07-3.2a4.61,4.61,0,0,1,1.24-.87c.52-.33.86-.73,1.38-1.11a3.74,3.74,0,0,1,3.1-.41c1.46.52,1.86,1.66,2.09,3,.19,1.1,1.06,1.85,1.2,3a3.63,3.63,0,0,1-1,2.86,3.35,3.35,0,0,1-3.21,1c-.59-.12-1-.72-1.39-.82s-.9.15-1.3.09"/>
        <path class="cls-15" d="M954.13,322.32c.68-.88-.43-1.79-1.29-1.29a15.31,15.31,0,0,0-4.25,3.68,1.09,1.09,0,0,0-.31.34l-.12.22a16.16,16.16,0,0,0-2.54,5.32q-.15-.69-.31-1.37-1.21-5.61-2.75-11.14c-.16-.59-1-3.65-1.44-3.45-.34-1.34-.49.34-1.32-.85-.56-.8-1.66-.17-1.63.62a.9.9,0,0,0-.32,1.05q1.48,3.69,2.74,7.46c.06.4.11.79.18,1.18q.75,4.59,1.39,9.2.3,2.2.58,4.39a42.44,42.44,0,0,1-.38,5.43,43.62,43.62,0,0,0,6.26-.25c.66,0-.26-7.8.12-11.28C949.7,328.21,951.94,325.16,954.13,322.32Z"/>
        <path class="cls-6" d="M944.53,284.93c-.56-.2-.93.65-.36.86A12.16,12.16,0,0,1,952.1,299a.46.46,0,0,0,.92.13A13.09,13.09,0,0,0,944.53,284.93Z"/>
        <path class="cls-6" d="M956.23,303.28c-.2-.56-1.06-.22-.86.35A9.33,9.33,0,0,1,952.21,314a.46.46,0,0,0,.56.74A10.28,10.28,0,0,0,956.23,303.28Z"/>
        <path class="cls-6" d="M946.29,329.28l-2.51-7.6c-.19-.57-1-.22-.86.35l2.51,7.6C945.62,330.19,946.48,329.84,946.29,329.28Z"/>
      </g>
      <g>
        <g class="cls-11">
          <path class="cls-4" d="M884.94,322.16c-1.35,1.28-4.25.27-5.48-1a3.64,3.64,0,0,1-1-3.18c0-1.22,1.06-2.1,1.14-2.89.3-2.86-2.51-3.89.15-7a10.34,10.34,0,0,1,2.79-1.9c1.16-.71,1.92-1.6,3.09-2.41a8.63,8.63,0,0,1,6.95-.9c3.27,1.14,4.18,3.61,4.68,6.5.42,2.39,2.39,4,2.7,6.5a7.75,7.75,0,0,1-2.2,6.22,7.66,7.66,0,0,1-7.2,2.07c-1.31-.25-2.22-1.57-3.12-1.78s-2,.32-2.92.2"/>
        </g>
        <path class="cls-4" d="M896.51,327.83c-.38.37-1.18.08-1.52-.29a1.06,1.06,0,0,1-.28-.91c0-.35.29-.6.32-.83.08-.82-.7-1.11,0-2a2.86,2.86,0,0,1,.77-.54c.32-.2.53-.46.86-.69a2.33,2.33,0,0,1,1.92-.26,2,2,0,0,1,1.3,1.86c.12.68.66,1.15.75,1.86a2.26,2.26,0,0,1-.61,1.78,2.08,2.08,0,0,1-2,.59c-.36-.07-.62-.45-.87-.51s-.56.09-.81.06"/>
        <path class="cls-15" d="M897.84,325.75c.42-.55-.27-1.11-.8-.8a9.51,9.51,0,0,0-2.64,2.29.68.68,0,0,0-.19.21l-.08.14a10,10,0,0,0-1.58,3.31q-.09-.43-.19-.85-.75-3.48-1.71-6.92c-.1-.37-.63-2.27-.89-2.15-.21-.83-.3.21-.82-.53-.35-.5-1-.11-1,.39a.56.56,0,0,0-.2.65q.92,2.29,1.71,4.63c0,.25.07.49.11.73q.47,2.85.86,5.72.19,1.36.36,2.73a26.37,26.37,0,0,1-.24,3.37,27.1,27.1,0,0,0,3.89-.16c.41,0-.16-4.85.07-7A18.05,18.05,0,0,1,897.84,325.75Z"/>
        <path class="cls-6" d="M891.88,302.52c-.35-.13-.58.4-.23.53a7.55,7.55,0,0,1,4.93,8.19.29.29,0,0,0,.57.08A8.13,8.13,0,0,0,891.88,302.52Z"/>
        <path class="cls-6" d="M899.15,313.92c-.12-.35-.66-.13-.54.22a5.8,5.8,0,0,1-2,6.47.29.29,0,0,0,.35.46A6.39,6.39,0,0,0,899.15,313.92Z"/>
        <path class="cls-6" d="M893,330.07l-1.56-4.72c-.12-.35-.65-.14-.54.22l1.56,4.72C892.56,330.64,893.09,330.42,893,330.07Z"/>
      </g>
      <path class="cls-6" d="M689.14,274.39c-1.27-2.59-3-3.42-5.83-3.78l-11.14-1.4a.73.73,0,0,0-.21,1.45c3.83.48,7.67.91,11.5,1.45a5.08,5.08,0,0,1,4.55,3.32,34.09,34.09,0,0,1,1.75,4.78c2,6.75,2.1,13.92,1.74,20.89-.76,14.85-2.41,29.7-3.67,44.51-.08.94,1.37,1.15,1.45.21,1.08-12.79,2.22-25.58,3.25-38.38C693.4,296.55,694.1,284.49,689.14,274.39Z"/>
      <path class="cls-6" d="M668.94,254.23c-.09-2.73.09-5.92-.88-8.51-.82-2.19-2.61-2.94-4.85-2.78a65.8,65.8,0,0,0-9.92,1.74c-.91.21-.75,1.66.17,1.45,2.41-.56,4.84-1,7.29-1.39,1.43-.21,3.69-.84,5,.08,1,.71,1.25,2.15,1.39,3.26a95.17,95.17,0,0,1,.32,15.87c0,.93,1.41,1.15,1.45.21C669,260.85,669.05,257.54,668.94,254.23Z"/>
      <path class="cls-6" d="M403.79,216.26c-1.24-13.6-2.34-27.43-4.8-40.87-1.64-9-4.85-18.91-13.44-23.49-11.81-6.3-25.53,1.45-38-1.29a.84.84,0,0,0-.77.17c1.76-11.75-4.83-24.21-17.41-25.86a1,1,0,0,0-.29,2c11.8,1.55,17.58,13.46,15.59,24.38-.2,1.13,1.33,1.47,1.84.66a1,1,0,0,0,.75.66c11,2.43,22.14-3.09,33.08-.51,11.1,2.62,15,14.27,16.75,24.24,2.26,12.92,3.38,26.14,4.58,39.19q1.9,20.65,2.82,41.38,1,23.19.81,46.4c0,1.29,2,1,2-.23Q407.7,259.61,403.79,216.26Z"/>
      <g>
        <path class="cls-4" d="M691.87,219.74a41.74,41.74,0,0,0-4.13,9.48c-.55,1.86,2.35,2.65,2.89.8a38.43,38.43,0,0,1,3.82-8.76A1.5,1.5,0,0,0,691.87,219.74Z"/>
        <path class="cls-4" d="M706.91,228.64l-8.63,2.74c-1.83.58-1.05,3.48.8,2.89l8.63-2.74C709.54,231,708.76,228.05,706.91,228.64Z"/>
        <path class="cls-4" d="M682.2,229.12l-1.65-13.5c-.23-1.89-3.23-1.92-3,0l1.65,13.5C679.44,231,682.44,231,682.2,229.12Z"/>
      </g>
      <path class="cls-13" d="M532.53,163.61a19,19,0,0,0-3.77-3.5,17.63,17.63,0,0,0-2.16-1.28,10.37,10.37,0,0,1-2.7-1.34c-.44-.47-1.15.24-.71.71,1,1.1,2.84,1.39,4.12,2.17a17.92,17.92,0,0,1,4.5,4C532.23,164.82,532.94,164.11,532.53,163.61Z"/>
      <g>
        <path class="cls-4" d="M536,171C533,161,522.32,156.16,512.56,159.41a1.38,1.38,0,0,0-.69.49,16.83,16.83,0,0,0-7.77,21.16c3.46,8.47,13.52,13.79,22.48,12C536.93,190.95,538.7,180,536,171ZM523.77,190.6A18.24,18.24,0,0,1,507,180.83,14.07,14.07,0,0,1,513.85,162a1.46,1.46,0,0,0,.23-.13c8.77-2.49,17.62,2.24,19.63,11.41C535.47,181.33,533.3,190.19,523.77,190.6Z"/>
        <path class="cls-4" d="M528.46,178.9a15,15,0,0,0-7-3.42l-.84-7.64c-.19-1.76-3-1.78-2.78,0l1,8.64a1.42,1.42,0,0,0,.81,1.15,1.17,1.17,0,0,0,.79.45,12.28,12.28,0,0,1,6.09,2.77C527.85,182,529.82,180.07,528.46,178.9Z"/>
      </g>
      <path class="cls-4" d="M1152.83,240.06s6.85,2.37,9.32,20.48,12.07,38.69,12.07,38.69h-10.7l4.66,47.2-17.31,2.74-4.65-32.55-.06,27.48-34.6,7.52-1.71-30.42L1113,240s15-5.9,18.87-3.16c8,5.6,10.51-1.57,10.51-1.57Z"/>
      <path class="cls-2" d="M1138,318.36c-4.13,1.38-7,2.76-11.12,4.14-3.58,1.2-7.17,2.4-10.72,3.7s-6.81,2.6-10.15,4c-1.36.59-2.87,1.34-3.3,2.76a5,5,0,0,0,0,2.14,60.6,60.6,0,0,0,7.37,21.51,4.56,4.56,0,0,0,2.17,2.26,3.93,3.93,0,0,0,1.64.13c2.89-.25,5.58-1.53,8.19-2.8l5.93-2.87,7.48-3.62c2.53-1.23,5.07-2.45,7.51-3.85,1.18-.67,2.44-1.51,2.78-2.83a5.33,5.33,0,0,0-.1-2.33l-.57-3c-.2-1,1.48-2.62,1.28-3.65-.09-.48-.09-1.59-.35-2.7a1.55,1.55,0,0,0,1.11-2c-.34-1.05-1.56-1.12-2-1.08a18.43,18.43,0,0,0-.91-2.51c-.23-.54-2-.24-2.11-.81-.52-2.59-1.06-2.82-2-5.29a4.41,4.41,0,0,0-.91-1.52C1138.76,317.91,1138,318.36,1138,318.36Z"/>
      <path class="cls-4" d="M1116.72,264.42a351.72,351.72,0,0,1,5.32,50.76,4,4,0,0,1-.36,2.22,3.65,3.65,0,0,1-1.58,1.23,22.72,22.72,0,0,1-13.69,2,1.3,1.3,0,0,1-.73-.29,1.34,1.34,0,0,1-.28-.88l-1.11-16a349.93,349.93,0,0,1,.74-55.85c.28-3,.83-6.42,3.28-8.23a11.24,11.24,0,0,1,4-1.59c5.28-1.34,8.92-2.67,14.2-4"/>
      <path class="cls-16" d="M1130.28,231.12a17.8,17.8,0,0,0-7.75,7.2,6.36,6.36,0,0,0-1,4.14,7.68,7.68,0,0,0,1.11,2.51l7,11.85c-1.4.24-2.21,1.86-2.07,3.28a8.91,8.91,0,0,0,1.75,3.85,149.55,149.55,0,0,1,12.11,22.28c-1.51-4-.91-8.4-1.13-12.65-.42-8.11-3.84-15.71-6.2-23.48a91.78,91.78,0,0,1-3.59-18.56"/>
      <path class="cls-16" d="M1149.88,205.63s-.69,7.71,1.2,8.74c0,0,3.94,2.06,0,3.94a1.71,1.71,0,0,0-1.32,2.23s.64,6.68-3,6.17-5.48,7.2-4.28,8.57c0,0-2.06,10.79-13.19,0a26.1,26.1,0,0,0,2.06-10.11,7.63,7.63,0,0,0,2.4-6.85s-7.2,1.54-4.45-4.8c0,0,3.6-5,6.17,2.06,0,0,1.71-1.2,2.06-7.2S1149.88,205.63,1149.88,205.63Z"/>
      <path class="cls-14" d="M1147.59,205.1a22.88,22.88,0,0,1,3,0,3.47,3.47,0,0,0,2.68-1c.75-.92.62-2.25.45-3.43a7.51,7.51,0,0,0-1.31-3.81,5.05,5.05,0,0,0-3.47-1.62,14.12,14.12,0,0,0-3.9.37,51.77,51.77,0,0,0-13.26,4.06,7.55,7.55,0,0,0-3.29,2.64,8.55,8.55,0,0,0-.8,2.13l-1.78,6.42a17.92,17.92,0,0,0-.59,2.64,14.75,14.75,0,0,0,.27,4.39,9.86,9.86,0,0,0,2,4.9c1.19,1.33,3.28,2,4.82,1.1a3.87,3.87,0,0,0,1.69-2.73,8.7,8.7,0,0,0-.24-3.29.66.66,0,0,0-.19-.39.63.63,0,0,0-.39-.1c-.94,0-2,.23-2.76-.31a2.14,2.14,0,0,1-.57-2.53,5.21,5.21,0,0,1,1.83-2.07.91.91,0,0,1,.58-.25.92.92,0,0,1,.6.45,28.64,28.64,0,0,1,2,3.12c.75-.17,1.09-1,1.32-1.75l1.6-5.16a4.13,4.13,0,0,1,1.73-2.57c1.09-.91,2.37-1.87,3.77-1.65,1,.16,3.45,1,4.28.47"/>
      <path class="cls-16" d="M1142.41,235.3l-1.06,41.15c-.16,6.36-.31,12.86,1.68,18.91l5.86-33.45a10.87,10.87,0,0,0,.17-4.32,3.7,3.7,0,0,0-2.83-3l3.23-5a3.27,3.27,0,0,0,.35-3.88l-3.72-9.36c-.48-1.21-1.77-2.67-2.77-1.84"/>
      <path class="cls-16" d="M1120.21,316.66a48.3,48.3,0,0,0,8.11,5.35,5.13,5.13,0,0,1-3.54.62,1.49,1.49,0,0,0-1.19.06c-.39.3-.31.91-.19,1.39.72,2.82,2.26,5.36,2.15,8.45-.6.5-1.45-.17-1.93-.79-1-1.28-2.48-3.95-3.47-5.22-.17,3.1,4.58,8.49,2.34,9.74-.55.3-1.69-.15-2.28-.75A10.61,10.61,0,0,1,1119,333c-1.29-2.51-1.34-5.42-2.52-5.2-2.61.48,1.51,5,1.54,7.64,0,.13-.7,1.43-1.6.13a27.16,27.16,0,0,1-3.26-6.9c-.45,2,1.51,6.45,0,6a1.66,1.66,0,0,1-1.53-1,4.93,4.93,0,0,1-.32-1.93,34,34,0,0,0-1.51-10.48,1.14,1.14,0,0,1-.05-1,1.1,1.1,0,0,1,.63-.39l9.63-3.23"/>
      <g class="cls-11">
        <path class="cls-17" d="M1123.39,388.43a2.72,2.72,0,0,0,3-.91,30.29,30.29,0,0,0,1.87-2.82c1.95-2.69,5.52-3.71,8.85-3.72a8.55,8.55,0,0,1,4,.8c2.4,1.27,3.49,4.12,3.88,6.8,0,.34.06.76-.23,1a.94.94,0,0,1-.41.12q-10,1.21-20,1.83c-.86.05-1.91,0-2.31-.76a2.31,2.31,0,0,1,.33-2.06"/>
      </g>
      <g class="cls-11">
        <path class="cls-17" d="M1147.76,385.58a1.94,1.94,0,0,0,.75,2.89,6.83,6.83,0,0,0,4.74.75,1.57,1.57,0,0,0,.71-.28c.26-.23.11-.55-.06-.81l-1.52-2.5a1.72,1.72,0,0,0-.41-.5c-.78-.61-2.38-.42-3.6-.16"/>
      </g>
      <g class="cls-11">
        <path class="cls-3" d="M1163.81,339.06l-5,0a2.87,2.87,0,0,0-1.19.18,1.43,1.43,0,0,0-.72,1.06c-1.07,4.27-.13,8.65.8,12.94a11.74,11.74,0,0,0,1.82,4.77,2.84,2.84,0,0,0,.7.7,5.42,5.42,0,0,0,2.5.6c5.94.45,11.92.46,17.89.47,14.33,0,28.67,0,43-.68l-1-8.43-1.23-10.4a2.79,2.79,0,0,0-.68-1.8c-.76-.74-2.16-.91-3.42-1-17.66-1.23-35.42,2.88-53.08,1.62"/>
      </g>
      <g class="cls-11">
        <path class="cls-3" d="M1225.94,294.15a6.54,6.54,0,0,0-1.46-6c-1.52-1.51-4.28-1.76-5.76-.22-1.25,1.31-1.27,3.37-1,5.15s.87,3.61.49,5.38q-10.18,1.22-20.43,1.6a8.31,8.31,0,0,1,.49,2.31l.18.07c-2.3,1.66-5.27,2.05-8.11,2.11a7.49,7.49,0,0,1-3.18-.44,1.67,1.67,0,0,1-1.1-1.19,2.11,2.11,0,0,1,.12-.8q.26-.94.48-1.89-10.31-.07-20.59-1h-.61a14.92,14.92,0,0,1,.81-5.34,9,9,0,0,0,.16-5.34c-.63-1.7-2.58-3-4.27-2.36a3.58,3.58,0,0,0-2,2.71,11.08,11.08,0,0,0,.07,3.51q.89,7.2,1.09,14.46c.08,2.73.08,5.46.09,8.19q0,9.25,0,18.5c8.66,1.39,17.38,2.67,26.15,2.43,4.47-.12,8.93-.64,13.38-1.15l22.22-2.57a.66.66,0,0,0,.69-.82l.42-20.31a39.37,39.37,0,0,0-.19-6,20.12,20.12,0,0,1-.4-3.89C1223.91,298.77,1225.42,296.58,1225.94,294.15Z"/>
      </g>
      <path class="cls-4" d="M1185.2,301.85c-4.89,1.34-9.9,3.24-13.19,7.1a20.33,20.33,0,0,0-2.78,4.43,61.51,61.51,0,0,0-4,12.82c-.52,2.22-1,4.57-.35,6.76a13.33,13.33,0,0,0,2.57,4.24c1.36,1.72,2.92,3.56,5.08,4a12.82,12.82,0,0,0,2.43.07c4.37,0,8.59,1.69,13,1.87a29.79,29.79,0,0,0,11.78-2.45,12.88,12.88,0,0,1,4.44-1.17c2.26,0,4.44,1.25,6.68.91a6,6,0,0,0,4.5-4.17,11.17,11.17,0,0,0-.12-6.37c-.57-2.08-1.46-4-2.16-6.09-1.39-4.09-2-8.43-3.49-12.47s-4.33-7.93-8.45-9.23a5.06,5.06,0,0,0-2.94-.16,8.57,8.57,0,0,0-1.64.8c-3.21,1.77-7.45,2.32-10.41.16"/>
      <path class="cls-14" d="M1197.09,285.11a6.29,6.29,0,0,1,2.36-2.14,2.16,2.16,0,0,1,2.78.84c.47,1.07-.4,2.29-1.43,2.83s-2.24.67-3.29,1.18-2,1.67-1.59,2.77a2.49,2.49,0,0,0,2.13,1.41,5.29,5.29,0,0,0,5.66-4c.09-.44.16-1,.53-1.21a2.19,2.19,0,0,1,1.08-.19,2.57,2.57,0,0,0,1.62-4.05,3.65,3.65,0,0,1-.83-1,1.63,1.63,0,0,1,.78-1.77c.57-.4,1.25-.62,1.79-1.06a2.9,2.9,0,0,0-.92-4.76,9.62,9.62,0,0,1-1.44-.39c-1.07-.53-1.31-2-1-3.13s.89-2.22,1.06-3.4-.33-2.61-1.49-2.88c-1.48-.34-2.71,1.39-4.23,1.41s-2.44-1.49-3.22-2.75-2.12-2.62-3.51-2.09c-1.55.59-1.84,3.16-3.49,3.32s-2.26-2.11-3.63-3a2.53,2.53,0,0,0-3.65,2.37,9.34,9.34,0,0,1,.34,1.63c0,1.41-1.73,2-3,2.55s-2.72,2-1.86,3.11c.4.51,1.13.66,1.55,1.15,1.42,1.67-2.19,4.28-.94,6.08.84,1.21,2.74.42,3.88-.52s2.81-2,3.92-1c.29.25.47.61.75.88.91.88,2.44.51,3.5-.17s2-1.64,3.26-1.86,2.78.9,2.31,2.07c-.17.42-.55.72-.76,1.13a2.11,2.11,0,0,0,.73,2.46c.72.58-.92,2.41,0,2.61-.75.9,1.08.2.33,1.09"/>
      <path class="cls-16" d="M1182.25,277.07a28.79,28.79,0,0,1,.42,6.66,34.49,34.49,0,0,0-.16,4.78,6.46,6.46,0,0,0,1.86,4.28,6.13,6.13,0,0,0,4.74,1.31,18.19,18.19,0,0,0,4.84-1.44,3.43,3.43,0,0,0,1.89-1.33,11.45,11.45,0,0,0,.43-1.29,4.52,4.52,0,0,1,2.49-2.14,6.44,6.44,0,0,0,2.75-1.87c.64-.93.5-2.47-.55-2.87-1.22-.46-2.38.88-3.68,1-.46-.29-.28-1.05.15-1.39s1-.45,1.46-.75.77-1,.4-1.39a1.26,1.26,0,0,0-.64-.3l-1.32-.33a1.71,1.71,0,0,1-.88-.41c-.74-.8.45-2,.47-3.06s-1.29-1.83-2.39-1.7a8.71,8.71,0,0,0-3,1.34,3.63,3.63,0,0,1-3.17.46,10.37,10.37,0,0,1-1.15-.77,3.64,3.64,0,0,0-4.91,1.21"/>
      <g class="cls-11">
        <path class="cls-16" d="M1198.09,302.4a8.31,8.31,0,0,0-.49-2.31l0-.11a49.87,49.87,0,0,1-1.93-9.38c-1.7,2.06-4.72,2.51-7,2.86a2.07,2.07,0,0,0-1.23.47c-.31.33,0,0,0,.42a43.62,43.62,0,0,1-.93,5.91q-.22.95-.48,1.89a2.11,2.11,0,0,0-.12.8,1.67,1.67,0,0,0,1.1,1.19,7.49,7.49,0,0,0,3.18.44c2.84-.06,5.81-.45,8.11-2.11Z"/>
      </g>
      <g class="cls-11">
        <path class="cls-3" d="M1215.21,336.58a42.82,42.82,0,0,0,8.72-.24,7,7,0,0,1,3.86,0c1.2.51,1.88,2.33.85,3.13a2.7,2.7,0,0,1-.89.4,42.34,42.34,0,0,1-12.13,1.91A3.58,3.58,0,0,1,1213,341a2.19,2.19,0,0,1-.19-2.65,3.14,3.14,0,0,1,2.42-1.33"/>
      </g>
      <g class="cls-11">
        <path class="cls-3" d="M1154.2,336.58a42.82,42.82,0,0,0,8.72-.24,7,7,0,0,1,3.86,0c1.2.51,1.88,2.33.85,3.13a2.7,2.7,0,0,1-.89.4,42.34,42.34,0,0,1-12.13,1.91A3.58,3.58,0,0,1,1152,341a2.19,2.19,0,0,1-.19-2.65,3.14,3.14,0,0,1,2.42-1.33"/>
      </g>
      <path class="cls-18" d="M1154.11,347c-2.19,1.75-2.25,5-2.12,7.78l1.44,31.49a4.35,4.35,0,0,0,.31,1.72c.57,1.18,2,1.58,3.32,1.78,2.32.36,5,.37,6.63-1.35,1.43-1.53,1.45-3.86,1.38-5.95l-1-32.43a5.73,5.73,0,0,0-.64-3,4.26,4.26,0,0,0-2.06-1.52,8.37,8.37,0,0,0-7.89,1"/>
      <path class="cls-18" d="M1219.47,343.62c-3.33,2.36-3.49,7.16-3.32,11.24l1.06,24.59a13.61,13.61,0,0,0,.89,5.12,4.11,4.11,0,0,0,7.92-.21,13.61,13.61,0,0,0,.62-5.23l-.28-24.62c0-3.55-.18-7.39-2.39-10.17-.94-1.19-2.46-2.14-3.92-1.74"/>
      <path class="cls-4" d="M1186.95,344.12q-6.16-.93-12.35-1.65a5.81,5.81,0,0,0-2.22,0,4.22,4.22,0,0,0-2.05,1.47c-1.83,2.22-2.21,5.27-2.46,8.13A197.68,197.68,0,0,0,1168,388a1.46,1.46,0,0,0,.22.77,1.31,1.31,0,0,0,.95.4c4.27.41,8.48-3.7,12.46-2.08a20.29,20.29,0,0,0,2.84,1.35,6.46,6.46,0,0,0,1.92.06l5.87-.42a11.21,11.21,0,0,0,2.86-.45c.93-.32,1.77-.88,2.68-1.25a7.2,7.2,0,0,1,5.07-.12,20.36,20.36,0,0,0,2.65,1,8.39,8.39,0,0,0,2.43,0l6.74-.61a.8.8,0,0,0,.92-1q-.48-9.13-.2-18.29a69.18,69.18,0,0,0,0-7.25,59.91,59.91,0,0,0-1.76-9.52,25.55,25.55,0,0,0-2.06-6.18,8.6,8.6,0,0,0-4.72-4.28c-2.56-.82-5.32,0-7.91.78a92.55,92.55,0,0,1-13.52,2.81"/>
      <path class="cls-16" d="M1170.69,392.09a17.56,17.56,0,0,1,1.12-2.86,3.86,3.86,0,0,1,.83-1.21,4.33,4.33,0,0,1,1.16-.66,21.51,21.51,0,0,1,4.2-1.51,7.22,7.22,0,0,1,4.39.31c2.4,1.07,3.67,3.68,4.72,6.09a105.58,105.58,0,0,1-16.38.8"/>
      <path class="cls-16" d="M1193.4,392.09a17.56,17.56,0,0,1,1.12-2.86,3.86,3.86,0,0,1,.83-1.21,4.33,4.33,0,0,1,1.16-.66,21.51,21.51,0,0,1,4.2-1.51,7.22,7.22,0,0,1,4.39.31c2.4,1.07,3.67,3.68,4.72,6.09a105.58,105.58,0,0,1-16.38.8"/>
      <path class="cls-4" d="M1131.09,236.83a8.43,8.43,0,0,0,6,3.34,5.17,5.17,0,0,0,5.28-3.78,87.19,87.19,0,0,1,.21,13.13c-.2,4.09-.57,8.17-.94,12.24l-1.12,12.33c-1.17-5.45-2.34-10.89-3.74-16.29a204.65,204.65,0,0,0-6.6-20.86"/>
      <g class="cls-11">
        <path class="cls-16" d="M1187.26,281.69h-1.61a.63.63,0,0,0,0,1.25h1.61a.63.63,0,0,0,0-1.25Z"/>
      </g>
      <g class="cls-11">
        <path class="cls-16" d="M1192.19,281.69h-1.61a.63.63,0,0,0,0,1.25h1.61a.63.63,0,0,0,0-1.25Z"/>
      </g>
      <g class="cls-19">
        <path class="cls-20" d="M1179.45,309.43l-.23.41a1.56,1.56,0,0,0-.29,1.15,1,1,0,0,0,1.24.54,1.69,1.69,0,0,0,1-1.11,1.19,1.19,0,0,0,0-.83.94.94,0,0,0-.68-.51,1.77,1.77,0,0,0-.87.07"/>
      </g>
      <g class="cls-19">
        <path class="cls-20" d="M1190.29,315l-.44-.17a1.56,1.56,0,0,0-1.18-.12,1,1,0,0,0-.35,1.31,1.69,1.69,0,0,0,1.23.79,1.19,1.19,0,0,0,.83-.1.94.94,0,0,0,.41-.74,1.77,1.77,0,0,0-.19-.85"/>
      </g>
      <g class="cls-19">
        <path class="cls-20" d="M1200,309.54l0-.36c0-.31-.1-.66-.37-.81a.94.94,0,0,0-1.1.44,1.36,1.36,0,0,0-.1,1.18.74.74,0,0,0,.4.47.85.85,0,0,0,.71-.12,1.92,1.92,0,0,0,.55-.56"/>
      </g>
      <g class="cls-19">
        <path class="cls-20" d="M1206.5,316.76l0-.36c0-.31-.1-.66-.37-.81a.94.94,0,0,0-1.1.44,1.36,1.36,0,0,0-.1,1.18.74.74,0,0,0,.4.47.85.85,0,0,0,.71-.12,1.92,1.92,0,0,0,.55-.56"/>
      </g>
      <g class="cls-21">
        <path class="cls-20" d="M1210.67,379.87l0-.36c0-.31-.1-.66-.37-.81a.94.94,0,0,0-1.1.44,1.36,1.36,0,0,0-.1,1.18.74.74,0,0,0,.4.47.85.85,0,0,0,.71-.12,1.92,1.92,0,0,0,.55-.56"/>
      </g>
      <g class="cls-19">
        <path class="cls-20" d="M1211.27,324.94l0-.36c0-.31-.1-.66-.37-.81a.94.94,0,0,0-1.1.44,1.36,1.36,0,0,0-.1,1.18.74.74,0,0,0,.4.47.85.85,0,0,0,.71-.12,1.92,1.92,0,0,0,.55-.56"/>
      </g>
      <g class="cls-19">
        <path class="cls-20" d="M1208.93,335.59l0-.36c0-.31-.1-.66-.37-.81a.94.94,0,0,0-1.1.44,1.36,1.36,0,0,0-.1,1.18.74.74,0,0,0,.4.47.85.85,0,0,0,.71-.12,1.92,1.92,0,0,0,.55-.56"/>
      </g>
      <g class="cls-21">
        <path class="cls-20" d="M1185.58,383.76l0-.36c0-.31-.1-.66-.37-.81a.94.94,0,0,0-1.1.44,1.36,1.36,0,0,0-.1,1.18.74.74,0,0,0,.4.47.85.85,0,0,0,.71-.12,1.92,1.92,0,0,0,.55-.56"/>
      </g>
      <g class="cls-19">
        <path class="cls-20" d="M1199.86,322.66l0-.36c0-.31-.1-.66-.37-.81a.94.94,0,0,0-1.1.44,1.36,1.36,0,0,0-.1,1.18.74.74,0,0,0,.4.47.85.85,0,0,0,.71-.12,1.92,1.92,0,0,0,.55-.56"/>
      </g>
      <g class="cls-19">
        <path class="cls-20" d="M1188.16,328.47l0-.36c0-.31-.1-.66-.37-.81a.94.94,0,0,0-1.1.44,1.36,1.36,0,0,0-.1,1.18.74.74,0,0,0,.4.47.85.85,0,0,0,.71-.12,1.92,1.92,0,0,0,.55-.56"/>
      </g>
      <g class="cls-22">
        <path class="cls-20" d="M1205.63,366.23l0-.36c0-.31-.1-.66-.37-.81a.94.94,0,0,0-1.1.44,1.36,1.36,0,0,0-.1,1.18.74.74,0,0,0,.4.47.85.85,0,0,0,.71-.12,1.92,1.92,0,0,0,.55-.56"/>
      </g>
      <g class="cls-19">
        <path class="cls-20" d="M1186.71,336.7l0-.36c0-.31-.1-.66-.37-.81a.94.94,0,0,0-1.1.44,1.36,1.36,0,0,0-.1,1.18.74.74,0,0,0,.4.47.85.85,0,0,0,.71-.12,1.92,1.92,0,0,0,.55-.56"/>
      </g>
      <g class="cls-21">
        <path class="cls-20" d="M1175.06,348.68l0-.36c0-.31-.1-.66-.37-.81a.94.94,0,0,0-1.1.44,1.36,1.36,0,0,0-.1,1.18.74.74,0,0,0,.4.47.85.85,0,0,0,.71-.12,1.92,1.92,0,0,0,.55-.56"/>
      </g>
      <g class="cls-21">
        <path class="cls-20" d="M1184.71,352.76l0-.36c0-.31-.1-.66-.37-.81a.94.94,0,0,0-1.1.44,1.36,1.36,0,0,0-.1,1.18.74.74,0,0,0,.4.47.85.85,0,0,0,.71-.12,1.92,1.92,0,0,0,.55-.56"/>
      </g>
      <g class="cls-21">
        <path class="cls-20" d="M1192.22,374.62l0-.36c0-.31-.1-.66-.37-.81a.94.94,0,0,0-1.1.44,1.36,1.36,0,0,0-.1,1.18.74.74,0,0,0,.4.47.85.85,0,0,0,.71-.12,1.92,1.92,0,0,0,.55-.56"/>
      </g>
      <g class="cls-21">
        <path class="cls-20" d="M1180.9,365.13l0-.36c0-.31-.1-.66-.37-.81a.94.94,0,0,0-1.1.44,1.36,1.36,0,0,0-.1,1.18.74.74,0,0,0,.4.47.85.85,0,0,0,.71-.12,1.92,1.92,0,0,0,.55-.56"/>
      </g>
      <g class="cls-21">
        <path class="cls-20" d="M1195.14,360.63l.3-.22c.25-.19.53-.41.53-.72s-.48-.72-.92-.75a1.36,1.36,0,0,0-1.08.49.74.74,0,0,0-.22.58.85.85,0,0,0,.45.56,1.92,1.92,0,0,0,.75.21"/>
      </g>
      <g class="cls-21">
        <path class="cls-20" d="M1177.1,377.51l0-.36c0-.31-.1-.66-.37-.81a.94.94,0,0,0-1.1.44,1.36,1.36,0,0,0-.1,1.18.74.74,0,0,0,.4.47.85.85,0,0,0,.71-.12,1.92,1.92,0,0,0,.55-.56"/>
      </g>
      <g class="cls-21">
        <path class="cls-20" d="M1196.75,347.58l0-.36c0-.31-.1-.66-.37-.81a.94.94,0,0,0-1.1.44,1.36,1.36,0,0,0-.1,1.18.74.74,0,0,0,.4.47.85.85,0,0,0,.71-.12,1.92,1.92,0,0,0,.55-.56"/>
      </g>
      <g class="cls-21">
        <path class="cls-20" d="M1208.06,351.66l0-.36c0-.31-.1-.66-.37-.81a.94.94,0,0,0-1.1.44,1.36,1.36,0,0,0-.1,1.18.74.74,0,0,0,.4.47.85.85,0,0,0,.71-.12,1.92,1.92,0,0,0,.55-.56"/>
      </g>
      <g class="cls-21">
        <path class="cls-20" d="M1173.56,361l0-.36c0-.31-.1-.66-.37-.81a.94.94,0,0,0-1.1.44,1.36,1.36,0,0,0-.1,1.18.74.74,0,0,0,.4.47.85.85,0,0,0,.71-.12,1.92,1.92,0,0,0,.55-.56"/>
      </g>
      <g class="cls-19">
        <path class="cls-20" d="M1179.45,320.37l-.23.41a1.56,1.56,0,0,0-.29,1.15,1,1,0,0,0,1.24.54,1.69,1.69,0,0,0,1-1.11,1.19,1.19,0,0,0,0-.83.94.94,0,0,0-.68-.51,1.77,1.77,0,0,0-.87.07"/>
      </g>
      <g class="cls-19">
        <path class="cls-20" d="M1168.68,321.55l-.23.41a1.56,1.56,0,0,0-.29,1.15,1,1,0,0,0,1.24.54,1.69,1.69,0,0,0,1-1.11,1.19,1.19,0,0,0,0-.83.94.94,0,0,0-.68-.51,1.77,1.77,0,0,0-.87.07"/>
      </g>
      <g class="cls-19">
        <path class="cls-20" d="M1172.25,328l-.17.31a1.18,1.18,0,0,0-.22.87.74.74,0,0,0,.94.41,1.28,1.28,0,0,0,.72-.84.9.9,0,0,0,0-.63.72.72,0,0,0-.51-.39,1.34,1.34,0,0,0-.66.05"/>
      </g>
      <g class="cls-19">
        <path class="cls-20" d="M1169.91,334.79l-.17.31a1.18,1.18,0,0,0-.22.87.74.74,0,0,0,.94.41,1.28,1.28,0,0,0,.72-.84.9.9,0,0,0,0-.63.72.72,0,0,0-.51-.39,1.34,1.34,0,0,0-.66.05"/>
      </g>
      <g>
        <path class="cls-14" d="M1130.2,229c-5.49,1.85-11.09,3.12-13.84,8.74-2.43,5-1.64,10.45,0,15.52a1.31,1.31,0,0,0-.08.75,21.86,21.86,0,0,0,.31,10.55c.58,2.11,1.17,4.28,2.6,5.86a3.7,3.7,0,0,0,3.78,3.44,1.28,1.28,0,0,0,1.25-1.25,3.94,3.94,0,0,0-.77-2.34,3,3,0,0,0,1.86-2.58,2.71,2.71,0,0,0-.57-2.09,14,14,0,0,0-.86-7,12,12,0,0,0-4.93-5.44c-1.47-4.44-2.49-9.21-.58-13.68,2.26-5.31,7.53-6.41,12.51-8.08C1132.38,230.93,1131.73,228.51,1130.2,229Zm-7.52,38.88h0C1122.68,268,1122.65,267.92,1122.68,267.9Zm-.34-3.43a1.63,1.63,0,0,0-.66.36,2.25,2.25,0,0,0-.53,1.92,14.13,14.13,0,0,0,.21,2l0,0a1.33,1.33,0,0,0-.33,0c-1.37-1.5-1.86-4.1-2.28-5.92a17.93,17.93,0,0,1-.25-6.85A9.88,9.88,0,0,1,1122.34,264.48Z"/>
        <path class="cls-14" d="M1152.76,245.83c-1.44-6-4.4-11.56-10-14.65-1.41-.78-2.67,1.38-1.26,2.16,5.22,2.87,7.73,8,9,13.65a3.7,3.7,0,0,0-.89,3.21,3.29,3.29,0,0,0,3.34,2.51,3,3,0,0,0,2.65-3.12A4.44,4.44,0,0,0,1152.76,245.83Zm0,4.38c-.32.11-.7-.29-.77-.56a1.21,1.21,0,0,1,.41-1.13,1.72,1.72,0,0,1,.56.67C1153.09,249.46,1153.16,250.08,1152.78,250.21Z"/>
      </g>
      <g class="cls-23">
        <path class="cls-4" d="M1117.91,275.76a183.56,183.56,0,0,0,4.15,38.92c.17.79,1.37.45,1.21-.33a182,182,0,0,1-4.1-38.58.63.63,0,0,0-1.25,0Z"/>
      </g>
      <circle class="cls-24" cx="1145.71" cy="212.11" r="0.96"/>
      <path class="cls-3" d="M1204.63,327.14c1.3,1.41-.53,2.87-1.8,3.24s-2.67.34-4,.6c-.79.15-.46,1.36.33,1.21,2.07-.4,4.54-.18,6.15-1.8a3,3,0,0,0,.18-4.14c-.55-.6-1.43.29-.89.89Z"/>
      <g class="cls-11">
        <path class="cls-16" d="M1189.82,334.79c.94-.39,2.07-.14,3-.6,1.27-.63,1.56-2.29,1.61-3.7,0-.84.17-1.9,1-2.12s1.42.54,1.71,1.26a5.15,5.15,0,0,1,.15,3.38c-.21.71-.52,1.62.07,2.06s1.16.1,1.66.37a1.21,1.21,0,0,1,.5,1.28,3.53,3.53,0,0,1-.65,1.3,1.32,1.32,0,0,1,1.15,2.36.47.47,0,0,1,.49.45,1,1,0,0,1-.26.67c-.8,1-2.24,1.1-3.51,1.06a36.1,36.1,0,0,1-7.18-.94"/>
      </g>
      <path class="cls-3" d="M1175.52,330.76c-.6,2.38,3.77,2.74,5.24,2.89,2.11.22,4.64-.39,6.66.08,3,.71,1.91,6.18,1.51,8.32-.15.79,1.06,1.13,1.21.33a23.51,23.51,0,0,0,.36-6.74c-.09-.86-.07-2.36-.83-2.93-1.14-.85-13.46.43-12.94-1.63a.63.63,0,0,0-1.21-.33Z"/>
      <g>
        <path class="cls-3" d="M770.06,376c-.14,3.57,5,4.7,4.9,7.89-.17,4-5.94,3.3-8.22,2.19-2.61-1.27-6.23-4.53-5.18-8,1.15-3.82,5-2.4,7.86-2.06"/>
        <path class="cls-3" d="M783.37,377.53c-.12,3,4.2,4,4.09,6.7-.14,3.36-5,2.8-6.86,1.86-2.18-1.08-5.2-3.85-4.32-6.81,1-3.24,4.16-2,6.56-1.75"/>
        <path class="cls-16" d="M773.44,268.9c1.81,2.55,8.73,5.32,7.7,8.71-.35,1.17-2.64,1.77-3.23,3.39-.67,1.84,2.75,3.1-1.57,4.1a18.93,18.93,0,0,0,3.07,2.4c-.5,3.52-2.73,3.92-5.85,4.08-.67,0,2.63,13.36,1.53,14-1.93,1.16-8.43-10.11-9.52-10.36-2-.45-1.21-5.35-2.25-7.07-2-3.25-5.58-12.92,3.91-10.06,0-3.39,3.08-8,5.82-9.62"/>
        <path class="cls-24" d="M826.25,283.1l.12-.07a1.57,1.57,0,0,1,.82-.17c.86-2.71,2.8-5,4.79-7.16a1.45,1.45,0,0,1,2.24.05,5.92,5.92,0,0,1,1.39-1.32c5.88-3.87,13.23,5.09,12.39,10.68-.55,3.66-4.06,8.7-7.74,9-1.83.14-1.06,2.6-1,3.31.23,4.33-1,9-3.36,8.82-3-.18-2.75-7.29-4.31-8.45-.56-.42.34-4.28-.14-4.79-1.7-1.82-4.48-3.9-4.69-6.37,0-.17,0-.33,0-.5a1.63,1.63,0,0,1-1.12-.78A1.66,1.66,0,0,1,826.25,283.1Z"/>
        <path class="cls-14" d="M830.77,269.88l.05-.11a2.05,2.05,0,0,1,2.68-.75,1.35,1.35,0,0,1,.52.21,6.39,6.39,0,0,1,2,2,3.79,3.79,0,0,0,5.67-.34c1.77-.35,3,1,3.55,2.79,1.74-1,4.1.91,4.2,3.18a1.52,1.52,0,0,1,.74,1.35,4.44,4.44,0,0,1-.07.71,3.76,3.76,0,0,1,.1,3.13,1.79,1.79,0,0,1,.33.56l.18.53a1.66,1.66,0,0,1-.45,1.59,3.92,3.92,0,0,1-.35.34l-.11.59c.73,1.14.11,2.83-1.16,3.75a1.23,1.23,0,0,1-.88.23,3.79,3.79,0,0,1-.22,1.2,1.63,1.63,0,0,1-2.26,1.47,1.49,1.49,0,0,1-1-.51,6.58,6.58,0,0,1-2.07-3.89,1.61,1.61,0,0,1,.84-1.42c1.57-.84,3.43-2.9,1.5-4.32-.67-.5-1.95-.22-2.11.5-.3,1.31-1.11.76-2.46.17-1-.43.4-.88.15-1.57-.19-.53-2-1.29-2.7-1.73-1.7-1.07-6.19-2-7.15-3.9a1.78,1.78,0,0,1-.15-1.06l-.08-.12a3.32,3.32,0,0,1-.41-2.69A4.84,4.84,0,0,1,830.77,269.88Z"/>
        <path class="cls-14" d="M769.18,278.64c1.11-1,.33-3.7,1.38-4.74s4-1.48,5.21-2.53c2.1-1.78,3.09-2.57,1-5-4.13-4.81-8.57-2.44-12.44-.29-4.12,2.29-8.16,5.17-8.59,10.27-.28,3.4.1,6.37,2.49,8.88,1.69,1.77,6.83,9.19,8,3.14.72-3.7-.43-3.15-1.81-5.6a4.43,4.43,0,0,1-.46-3.06c.92-1.87,3.13-.67,4.52-.86"/>
        <path class="cls-4" d="M774,295.49c4.31,1.15,7.61,5.62,8.5,10.11a123.78,123.78,0,0,1,2.06,24.6c0,7.55,1.19,17.85,1.91,25.28.25,2.6-.27,5.33.21,7.89-3.76,2-9.83-.41-13.88-.77-2.89-.26-12.83,1.3-14.55,1.3-3.48,0-2.09-3-1.91-6,.69-11.57-2.82-27.13-3.29-38.7-.29-7-1.42-24.7,11.57-25.23,2.34-.1,10.44,13.45,10.68,11.15"/>
        <path class="cls-16" d="M783.65,301.49c10.63,11.48,9.8,11.25,9.8,11.25,2.6.85,13.95.77,13.69,3.37-.12,1.22-.7,1.59-1,2.78-.64,2.37-5,1.37-7.26,1.12-3.1-.34-4.19-.71-7.29-1a8.43,8.43,0,0,1-4.83-1.64c-1.81-1.68-5.93-9.6-5.94-12C780.79,305.37,780.89,298.51,783.65,301.49Z"/>
        <path class="cls-4" d="M773.8,295.2c10.05.4,15.79,7.94,20.26,15.83,1.44,2.54-6.22,8.2-6.22,8.2C782,314.65,777.57,304,774.68,299Z"/>
        <g class="cls-11">
          <path class="cls-16" d="M831.22,367.54c-.23,3.07,2,6.76,2.69,9.73,1.08,4.51-5.59,5.11-4.82,6.32.46.71,7.21-.05,8.21-1.11.79-.84.68-3.12.5-4.08-.5-2.76-.56-5.45-.8-8.22-.28-3.26-2.56-3.05-5.38-3.05"/>
        </g>
        <g class="cls-11">
          <path class="cls-16" d="M845.73,366.72c.94,2.93.25,9.54.17,12.55,0,1.43,1.16,1.65.41,2.8-.62.94-7,3.58-8,2.76-.84-.65,4.2-5,4.1-5.93-.28-2.78-.89-5.4-1.38-8.13-.58-3.22,1.3-3.48,3.55-4"/>
        </g>
        <g class="cls-11">
          <path class="cls-16" d="M816,312c-1.35,2.53-4.47,4.23-5.35,4.05-2.32-.46-4.84-4-7.44-2.89-4.15,1.74.87,6.06,3.33,6.72,2.08.55,6.51,1.23,8.46,0a14.74,14.74,0,0,0,4.22-4.5c1.22-2.15-.65-1.69-2.89-3.24"/>
        </g>
        <g class="cls-11">
          <path class="cls-16" d="M849.33,316.33a37.73,37.73,0,0,0,.84,9,30.5,30.5,0,0,1,1,5.27c.06,1-.36,1.25-.65,1.91-.42.95,1.3,0,1.65.15s.45,3.59.77,3.63c5.19.62,1.76-16.36,1.08-18.84-.17-.61-.4-2.52-1-2.81s-2.7.75-3.3,1.13"/>
        </g>
        <path class="cls-4" d="M830.69,296.2c2.06-1,2.57,8.63,4.83,8.88s3.67-8.14,3.67-8.14,7.46-1.56,9.82,2c1.41,2.14,5.87,19.19,5.87,19.19-2,1.47-5.87,2.87-6.23,1.51-1.56-5.89-2-8.07-2.61-9.94-.95,7.85,3.54,57.82,4.06,61.09.14.87-19.4.18-19.4.18-4.88,0-3.77-28.57-3.81-39.76,0-5.19-1.35-18.19-1.58-23.32-.15-3.38-4.6,10.71-7.44,8.56-.73-.55-5.75-.58-4.65-2.69,5-9.55,7.84-16.11,10.64-17.2A10.82,10.82,0,0,1,830.69,296.2Z"/>
        <path class="cls-3" d="M764.46,294c1.13-.65,8.19,9.31,8.19,9.31l1.14-8.38,3.47.7,3.67,24.59.48,15.33-13.57.8-5.75-42A9.22,9.22,0,0,1,764.46,294Z"/>
        <path class="cls-16" d="M763.23,315.51c-1.18,11.12,9.33,10.58,16.43,10.76,3.43.09,3.25.58,3,3.17-.12,1.22-1.14,1-1.47,2.22-.64,2.37-6.26.79-8.54.54-3.1-.34-5.29-.36-8.39-.61-1.65-.14-4.05-.65-5.22-1.74-1.81-1.68-2.66-9.85-2.66-12.28Z"/>
        <path class="cls-5" d="M767.59,334.76c4-.2,6.12-.74,10,.16.58.13,3.24-.39,3.63.08.55.66,1.16,10,1.31,11,.27,1.81.11,3.64.36,5.46a117.85,117.85,0,0,1,.92,23.62c-.13,1.9,0,2.22-1.32,2.39-1,.12-5,.51-6,.25,0,0-1.47-24.27-2.34-29.54a22,22,0,0,0-.68,5c-.28,4.21.19,8.19-.1,12.41-.16,2.32.36,11.3-1.28,12.08-.63.3-2.72-.66-3.45-.56-1.24.17-4.69,1.11-4.87-.82-.25-2.72-.68-10.08-.68-12.89l4.85-.53c0-6.13.43-22.16-.37-28.14"/>
      </g>
      <path class="cls-14" d="M1124.62,344.37c.45-.87.87-1.75,1.28-2.63.75.24,1.5.5,2.23.79.36.14.52-.43.17-.57-.71-.28-1.43-.53-2.15-.76q1.06-2.31,2-4.68a3.52,3.52,0,0,0,4.56.92c2.1-1.21,1.32-3.06.08-4.63a.24.24,0,0,0-.29-.08c.14-.23-.21-.55-.48-.35a23.68,23.68,0,0,1-6.93,3.62.27.27,0,0,0-.24,0l-.29.16c-.29.16-.11.65.22.55a24.58,24.58,0,0,0,7.57-3.86.3.3,0,0,0,0,.35,5,5,0,0,1,.86,1.36,1.57,1.57,0,0,1-.32,2,2.28,2.28,0,0,1-1.08.59,3,3,0,0,1-3.49-1.4.3.3,0,0,0-.54.06c-.68,1.76-1.42,3.48-2.21,5.19q-1.55-.47-3.14-.78c-.37-.07-.54.5-.17.57q1.55.31,3.05.76c-.4.84-.8,1.68-1.23,2.5C1123.94,344.4,1124.44,344.71,1124.62,344.37Z"/>
      <g>
        <path class="cls-4" d="M600.3,163.48a20,20,0,0,0-6.24,7.26c-.59,1.14,1.26,1.9,1.84.76a17.83,17.83,0,0,1,5.61-6.43C602.55,164.32,601.34,162.74,600.3,163.48Z"/>
        <path class="cls-4" d="M607,171.77a32,32,0,0,1-5.24,1.6c-1.25.26-1,2.24.27,2a35,35,0,0,0,5.73-1.73A1,1,0,0,0,607,171.77Z"/>
        <path class="cls-4" d="M589.89,224.59c.5-3.42,1-6.84,1.43-10.26q1.33-10,2.44-19.93c.4-3.61,2.39-10.08-.47-13.2-1.59-1.74-4.27-2.16-6.47-2.64a46.31,46.31,0,0,0-9.07-1.06c-.76,0-1.52,0-2.27,0a46.13,46.13,0,0,0-6.17-.1c-2.7.14-7.06.09-9.35,1.69a1.15,1.15,0,0,0-.32.36.87.87,0,0,0-.36.69q-.66,10.64-1.12,21.29c0,.43-.06.86-.09,1.28l-.74,8.48-1.55,17.62c-.49,5.53,5.25,7.91,9.14,6.25a65.76,65.76,0,0,0,17.42-2.13c2.31-.33,4.44-1,5.77-2.58S589.6,226.54,589.89,224.59Z"/>
        <path class="cls-25" d="M584.11,219.6c.11-1.45.15-2.89.16-4.34l.84-5.48c.94-6.09,2.21-12.23,2.6-18.38.29-4.42,0-7.72-5-8.38a46.69,46.69,0,0,0-8.4-.31,29.41,29.41,0,0,0-5.57-.16,6.3,6.3,0,0,0-2.17.46,1.19,1.19,0,0,0-1.17.53,1.81,1.81,0,0,0-.94,2.14,20.21,20.21,0,0,0-.27,3l-1,9.82a138.2,138.2,0,0,0-2,21.53,3.62,3.62,0,0,0,.11.87,7,7,0,0,0,.35,2.9,2.8,2.8,0,0,0,2.1,2,.57.57,0,0,0,.33,0,5.26,5.26,0,0,0,1.19.14c3.22,0,6.51-.43,9.73-.64,2.06-.14,5.39.34,7.08-1.1a2.68,2.68,0,0,0,.35-.37.63.63,0,0,0,.44-.24A6.65,6.65,0,0,0,584.11,219.6Z"/>
        <path class="cls-26" d="M572.41,228.68a1.21,1.21,0,0,0-.93-.24,1.28,1.28,0,0,0-1,1.38,1.79,1.79,0,0,0,2.89,1.11A1.33,1.33,0,0,0,572.41,228.68Z"/>
        <path class="cls-4" d="M584.21,188.77c-.84.63-2.75,0-3.69,0-1.5,0-3,.28-4.5.13a45.93,45.93,0,0,0-7.72-.46c-.85.06-.65,1.37.2,1.31,3.36-.22,6.53.65,9.84.47,1.65-.09,3.25.11,4.87.13a2.44,2.44,0,0,0,1.81-.54C585.72,189.3,584.9,188.26,584.21,188.77Z"/>
        <path class="cls-4" d="M584.19,193.62c-1.81-.53-3.38.23-5.2-.14-.63-.13-.82-.48-1.51-.58a15.35,15.35,0,0,0-2,.25,17.25,17.25,0,0,1-5.07-.82c-.9-.25-1.41-.45-2.17.24s.19,1.62.82,1c.1-.1,2.68.64,3.13.69a27.58,27.58,0,0,0,3.88.39c.37,0,.71-.35,1-.35,1.16,0,1,.45,1.78.65,1.56.38,3.3-.59,4.79-.16C584.52,195.1,585,193.86,584.19,193.62Z"/>
        <path class="cls-4" d="M582.46,200.22c-.61.19-1.51-.63-2.14-.62-.86,0-1.46.47-2.33.46-1,0-1.84-.69-2.89-.59-.74.07-1.23.52-2,.53s-1.36-.48-2.11-.49-.9.41-1.48.52c-1.11.2-2-.64-2.75.45-.5.7.56,1.49,1.06.8-.24.33,2,.16,2,.14.53-.13.84-.52,1.51-.47.4,0,.82.4,1.23.47a3.55,3.55,0,0,0,1.4-.08c.62-.11.72-.37,1.44-.38s1,.29,1.65.43a6.34,6.34,0,0,0,1.43.18c1,0,2.07-.08,3.07,0,.73,0,.58.17,1.41-.09S583.27,200,582.46,200.22Z"/>
        <path class="cls-4" d="M576,204.75a14.23,14.23,0,0,0-5.66-.43,1.12,1.12,0,0,1-1.39-.14,2,2,0,0,0-.45-.36,1.49,1.49,0,0,0-.6-.14c-.62,0-.88.4-1,.95s.66.87,1.09.51a11.64,11.64,0,0,0,1.2.69,2.85,2.85,0,0,0,1.49-.21,5.5,5.5,0,0,1,1.85.05,10.13,10.13,0,0,1,3,.31C576.34,206.24,576.83,205,576,204.75Z"/>
        <path class="cls-13" d="M570.57,218.23a.68.68,0,0,0-.93-.11,5.74,5.74,0,0,1-1.17.88l-.07-.16a2.61,2.61,0,0,0-.19-.34,1,1,0,0,0-1.55-.24c-.59.5-.43,1.27-.25,1.92a3.57,3.57,0,0,0,1.25,2,.63.63,0,0,0,.25.11,1.48,1.48,0,0,0,.56.27.3.3,0,0,0,.42-.07l0,0a3.38,3.38,0,0,0,.54-.6h0a.66.66,0,0,0,.13-.13C570.23,220.93,571.42,219.23,570.57,218.23Z"/>
        <path class="cls-4" d="M589.65,170.79a12.2,12.2,0,0,1,.55-5.31c.41-1.21-1.43-2-1.84-.76a14.58,14.58,0,0,0-.68,6.34A1,1,0,0,0,589.65,170.79Z"/>
      </g>
      <path class="cls-14" d="M769.07,309.23a1.82,1.82,0,0,0-1.67-1.73c-.46-1.94-1.24-3.86-1.78-5.76-.66-2.34-1.26-4.69-1.8-7.06-.15-.63-1.11-.36-1,.27.55,2.37,1.14,4.72,1.8,7.06.53,1.88,1.3,3.78,1.76,5.69a1.84,1.84,0,0,0,.17,3.46,1.82,1.82,0,0,0,2.13-.85A1.61,1.61,0,0,0,769.07,309.23Z"/>
      <path class="cls-4" d="M906.07,187.69c4-7,10.18-7.93,15.23-11.8a51,51,0,0,1,16-8.19,27.87,27.87,0,0,1,11.25-2.16,51.51,51.51,0,0,1,17.66,1.54c1.13.06,2.26.11,3.4.14a10.7,10.7,0,0,1,3.24-.34q2.14.12,4.2.2c1-.06,2-.13,3.08-.23a109.21,109.21,0,0,0,27.24-6.61c8-3,16-5.93,24.58-6.68,15.93-1.37,32.48,3.54,45.89,12,13.22,8.39,23.77,21.29,25.35,37.29s-3,28.6-13.27,40.55c-2.13,2.49-3.09,4.66-2.21,10.82.36,2.49.78,6.9,3.81,9.54-6.48-1.32-13.84-11.78-18.69-12.67a1.26,1.26,0,0,1-.54-.23c-5.84-.72-7.59-.08-13.43-.23l-5.09-.13a191.65,191.65,0,0,1-20.25-.47l-3.44-.05c-18.26-.17-36.6,3.46-54.79,1.09-9.17-1.19-20.51,1-29-2.6-3-1.19-11.82-3.8-14.61-5.36a102.29,102.29,0,0,1-9-5.41c-10.9-7.32-23.87-13.78-23.87-28C898.76,197.83,904.21,191.16,906.07,187.69Z"/>
      <g>
        <path class="cls-15" d="M943,189.9c-5-2.66-7.49,2.58-8.55,7.45a10.29,10.29,0,0,0-5.1-2.08c-3.16-.34-7,1-8.42,4-1.57,3.4,1.22,5.64,3.58,7.62,4.36,3.67,8.85,7.19,13.42,10.6a2.09,2.09,0,0,0,1.58.45c1.19,1.71,4.24.56,4.53-1.65.72-5.59,1.74-11.24,2.16-16.86C946.45,196.26,946.25,191.64,943,189.9Z"/>
        <path class="cls-14" d="M959.87,195.33c-2.57,1.73-5,4.34-8.61,1.47a.63.63,0,0,0-1,.61c.81,3.56,1.51,7.14,2.14,10.73-3.61-4.15-6.52-9.18-9.65-13.63a.63.63,0,0,0-1.14.48l1.91,8a8,8,0,0,0-3.3,1.7c-.61.52.27,1.4.88.88a6.73,6.73,0,0,1,3.11-1.47.52.52,0,0,0,.44-.54.58.58,0,0,0,.15-.55l-1.2-5c2.9,4.35,5.77,8.94,9.36,12.61a.63.63,0,0,0,1-.61c-.64-3.8-1.38-7.58-2.21-11.35,3.23,1.87,5.24.14,8.75-2.22C961.16,196,960.54,194.88,959.87,195.33Z"/>
      </g>
      <g>
        <g class="cls-11">
          <path class="cls-4" d="M1050.89,201.91a1.23,1.23,0,0,0-1.17,1.11c2.87,13.54,5,24.57,7.58,36.4a1.69,1.69,0,0,0,.54,1,1.77,1.77,0,0,0,1.39.11c8.43-1.64,19-4.2,27.26-6.62.52-.15.49-.19.83-.62a2.29,2.29,0,0,0,.34-1.88c-2.83-13.35-4.53-20.08-7-30.15-.44-1.82-.27-4-1.93-4.88-1.41-.73-1-.89-2.51-.53Z"/>
        </g>
        <path class="cls-4" d="M1075.47,197a1,1,0,0,1,1.28.42c3,11.53,5.54,20.85,8.1,31a1.5,1.5,0,0,1,0,1,1.43,1.43,0,0,1-1,.61c-6.83,1.9-15.6,3.9-22.58,5.14-.44.08-.43,0-.84-.17a2,2,0,0,1-1-1.32c-2.93-11.37-4.21-17.21-6.19-25.9-.36-1.57-1.31-3.2-.41-4.49.76-1.09.38-1.06,1.65-1.35Z"/>
        <g class="cls-11">
          <path class="cls-4" d="M1060.94,197.93a.72.72,0,0,0,.58-.81,5.13,5.13,0,0,1,.05-2.08,3,3,0,0,1,1.33-1.63,2.17,2.17,0,0,1,2.16.07,3.92,3.92,0,0,1,1.34,1.8,8.82,8.82,0,0,0,.35,1c.12.19,1.29-.26,1.49-.3a12.75,12.75,0,0,0,3-.87.92.92,0,0,1,.94,0,1.25,1.25,0,0,1,.32.6,26.62,26.62,0,0,1,.68,2.63.68.68,0,0,1,0,.42.49.49,0,0,1-.36.22l-14.67,3.46a.72.72,0,0,1-.86-.53l-.67-2.72c0-.16-.07-.35,0-.45a.34.34,0,0,1,.2-.08Z"/>
        </g>
        <path class="cls-14" d="M1075.27,222.82c-.87-.7-1.75-1.37-2.64-2,.44-.78.9-1.56,1.39-2.31.24-.36-.36-.68-.6-.32-.48.73-.92,1.47-1.34,2.22q-2.33-1.72-4.76-3.31a4,4,0,0,0,2.08-4.87c-.87-2.62-3.12-2.17-5.15-1.16a.27.27,0,0,0-.16.31c-.23-.21-.66.11-.5.46a27,27,0,0,1,2.44,8.56.31.31,0,0,0,0,.28l.12.36a.34.34,0,0,0,.66-.12,28,28,0,0,0-2.56-9.34.35.35,0,0,0,.4.06,5.7,5.7,0,0,1,1.72-.65,1.79,1.79,0,0,1,2.15.81,2.59,2.59,0,0,1,.41,1.34,3.37,3.37,0,0,1-2.37,3.58.34.34,0,0,0-.06.62q2.71,1.74,5.28,3.66-.87,1.62-1.6,3.32c-.17.4.43.72.6.32q.7-1.66,1.55-3.23c.85.64,1.69,1.28,2.51,1.94C1075.15,223.58,1075.61,223.09,1075.27,222.82Z"/>
      </g>
      <g>
        <path class="cls-15" d="M985.65,178.07c-.71.4-1.44,1.39-5.6,9A116.67,116.67,0,0,0,972.63,203c-1.24,3.29-2,4.89,2.66,6.77a114.11,114.11,0,0,1,12.82,5.76c1.64,1,3.57.17,8.55-9.63s5.13-10.65,6.87-13.93c2.29-4.3,2.33-3.87-1.81-6s-13.49-7.28-13.49-7.28Z"/>
        <path class="cls-4" d="M994.46,195.08c.14-2.3-2.26-2.34-4-1.95a12.87,12.87,0,0,0,1.57-2.8,4.77,4.77,0,0,0,3.08,1c.72,0,2.42-.35,2.08-1.44s-1.88-.91-2.67-.89a6.37,6.37,0,0,0-2.11.3,13.49,13.49,0,0,0,.45-1.95.33.33,0,0,0-.65-.1,12.23,12.23,0,0,1-1.87,5,2.51,2.51,0,0,0-2.52-2.23,2,2,0,0,0-1.48.34,2.4,2.4,0,0,0-.56.59,3.61,3.61,0,0,0-.66,1.13,16.13,16.13,0,0,0-.84,4.15,4.73,4.73,0,0,0,.26,2.89c.47.69,1,.7,1.73.64.4,0,.7-.24,1,0,0,0,.38.73.43.79a.34.34,0,0,0,.38.12C990.17,199.61,994.3,197.74,994.46,195.08Zm0-5.47c.4,0,2.49-.09,1.67.82-.32.35-1.52.22-1.94.15a4,4,0,0,1-1.64-.69A11.36,11.36,0,0,1,994.5,189.61Z"/>
        <path class="cls-4" d="M991,206.59a42,42,0,0,0-10.67-4.7c-.32-.09-.4.42-.08.52A41.1,41.1,0,0,1,990.71,207C991,207.17,991.33,206.77,991,206.59Z"/>
        <path class="cls-4" d="M990.66,210c-3.6-2.24-7.56-3.48-11.56-4.82-.32-.11-.53.37-.21.48,3.94,1.32,7.88,2.54,11.44,4.75C990.61,210.62,990.94,210.22,990.66,210Z"/>
      </g>
      <g>
        <path class="cls-15" d="M1040,213.82c-1.59-2.49-3.4-5.56-5.57-7.57-2.87-2.66-7,.2-9.72,2.82a1,1,0,0,0-.24.07,7.31,7.31,0,0,0-1.71,1.25.92.92,0,0,0-.27.52.86.86,0,0,0-.06,1.07l0,0a1,1,0,0,0,.06.61c2.18,5,4.15,10.21,7,14.9a.94.94,0,0,0,.67.46,1.81,1.81,0,0,0,.81.58c1.65.52,4.61-2,5.74-2.73,1.65-1,5.88-2.81,6.42-5S1041,215.44,1040,213.82Z"/>
        <path class="cls-15" d="M1029.17,201.75a10.83,10.83,0,0,0-1.26-1.91c-1.35-1.29-2.93,0-4.07.89-1.37,1-3.62,2.12-4.45,3.67s.67,2.89,1.73,4a.89.89,0,0,0,1.14.17c1.11-.11,2.28-1.2,3.08-1.74,1.23-.84,3.61-1.9,4.13-3.42A1.81,1.81,0,0,0,1029.17,201.75Z"/>
        <path class="cls-4" d="M1037.3,211.18a59.08,59.08,0,0,0-8.41,4.2.82.82,0,0,0,.82,1.41,56.49,56.49,0,0,1,8-4C1038.7,212.37,1038.28,210.79,1037.3,211.18Z"/>
        <path class="cls-4" d="M1038,215.65l-6.3,3.75a.82.82,0,0,0,.82,1.41l6.3-3.75A.82.82,0,0,0,1038,215.65Z"/>
      </g>
      <path class="cls-15" d="M1009.42,236.59c1.69-1.78.48-5.43-1.57-6.49a4.07,4.07,0,0,0-2.1-.35,2.7,2.7,0,0,0-1.19-.18.81.81,0,0,0-.49-.11c-3.24.3-23.44,1.78-17.55,9.39,1.93,2.49,5.25,2,8,1.54,3.15-.56,6.29-1.28,9.41-2C1005.42,238.06,1008.19,237.88,1009.42,236.59Zm-15.28,2.2c-2.79.47-4.86,1.67-6.3-1.35s.81-3.27,3.34-4a53.75,53.75,0,0,1,6.45-1.49c-.45,1.78-.43,5.13.23,6.14C996.63,238.32,995.39,238.58,994.14,238.79Z"/>
      <g>
        <path class="cls-15" d="M980.49,218.66a5.59,5.59,0,0,0-9.29,2,4.18,4.18,0,0,0-.21.64,4,4,0,0,0-.09,2.11,4,4,0,0,0,.63,2,5.45,5.45,0,0,0,3,2.38,5.07,5.07,0,0,0,4.83-.23,5.71,5.71,0,0,0,2.82-4.85A5.77,5.77,0,0,0,980.49,218.66Z"/>
        <path class="cls-4" d="M978.36,220.85a17.12,17.12,0,0,0-4.36,4c-.32.42.39.82.7.41a16,16,0,0,1,4.06-3.71C979.21,221.28,978.8,220.57,978.36,220.85Z"/>
      </g>
      <g>
        <path class="cls-15" d="M1034.46,170.49a5.89,5.89,0,0,0-2.57-3.36,6,6,0,0,0-2.26-.76,3.68,3.68,0,0,0-1.57,0,3.55,3.55,0,0,0-1,.21,7.38,7.38,0,0,0-1.63.63,6.44,6.44,0,0,0-1.38,1.07c.19-.18-.71.82-.91,1.2a8.17,8.17,0,0,0-.59,1.41q-.07.39-.11.78a4,4,0,0,0,.09,2.11,5.6,5.6,0,0,0,1.45,2.42,7.69,7.69,0,0,0,1.27,1,9.1,9.1,0,0,0,1.49.65l.36.09a7,7,0,0,0,1.65.18,6.33,6.33,0,0,0,4.06-1.68A5.92,5.92,0,0,0,1034.46,170.49Z"/>
        <path class="cls-4" d="M1032.22,175.15c-2.28-1.48-5.56-2.9-6.8-5.45-.23-.47-.93-.06-.7.41,1.32,2.7,4.69,4.18,7.09,5.74C1032.25,176.14,1032.66,175.43,1032.22,175.15Z"/>
      </g>
      <g>
        <path class="cls-15" d="M1045.19,188.69a5.89,5.89,0,0,0-2.57-3.36,6,6,0,0,0-2.26-.76,3.68,3.68,0,0,0-1.57,0,3.55,3.55,0,0,0-1,.21,7.38,7.38,0,0,0-1.63.63,6.44,6.44,0,0,0-1.38,1.07c.19-.18-.71.82-.91,1.2a8.17,8.17,0,0,0-.59,1.41q-.07.39-.11.78a4,4,0,0,0,.09,2.11,5.6,5.6,0,0,0,1.45,2.42,7.69,7.69,0,0,0,1.27,1,9.1,9.1,0,0,0,1.49.65l.36.09a7,7,0,0,0,1.65.18,6.33,6.33,0,0,0,4.06-1.68A5.92,5.92,0,0,0,1045.19,188.69Z"/>
        <path class="cls-4" d="M1042.94,193.35c-2.28-1.48-5.56-2.9-6.8-5.45-.23-.47-.93-.06-.7.41,1.32,2.7,4.69,4.18,7.09,5.74C1043,194.34,1043.38,193.63,1042.94,193.35Z"/>
      </g>
      <g>
        <path class="cls-6" d="M131.05,366.64c-3.07-14.86,1.35-30.81-5.4-45-.28-.58-1.14-.07-.86.5,6.68,14,2.25,30,5.3,44.71C130.21,367.55,131.18,367.28,131.05,366.64Z"/>
        <path class="cls-6" d="M67,310.87c-.37-.52-1.23,0-.86.5a9.67,9.67,0,0,1,1.67,7.3c-.11.63.86.9,1,.27A10.67,10.67,0,0,0,67,310.87Z"/>
        <path class="cls-6" d="M117.7,375.87a6.62,6.62,0,0,1-1.19,3.34c-.37.53.5,1,.86.5a7.62,7.62,0,0,0,1.33-3.85C118.75,375.23,117.75,375.23,117.7,375.87Z"/>
        <path class="cls-6" d="M46.06,377.2l-1,1.27c-.39.5.31,1.21.71.71l1-1.27C47.16,377.41,46.46,376.69,46.06,377.2Z"/>
        <path class="cls-6" d="M37.4,351.2c-.09-.63-1.06-.36-1,.27a44.55,44.55,0,0,1,.43,7.46.5.5,0,0,0,1,0A46.1,46.1,0,0,0,37.4,351.2Z"/>
      </g>
      <path class="cls-6" d="M595.17,184.1a5.43,5.43,0,0,0-3.34-4.41,49.92,49.92,0,0,0-10.28-2.75.48.48,0,0,0-.31-.14,76.1,76.1,0,0,0-16.6.72c-.63.1-.36,1.06.27,1a74.8,74.8,0,0,1,15.71-.72h0c2.71.54,5.39,1.18,8,1.94a9.19,9.19,0,0,1,4.2,1.94c1.41,1.38,1.52,3.4,1.57,5.3.14,5.56-1.21,11.33-2.07,16.81-.83,5.27-1.86,12.22-2.85,17.47-.91,4.86-5,11.88-11.42,12.07-.64,0,.71.93,1.34.82,5.42-1,9.47-4.79,10.32-9,1.16-5.82,2.47-14,3.58-21.1q.83-5.27,1.56-10.56A28.52,28.52,0,0,0,595.17,184.1Z"/>
      <path class="cls-6" d="M791.77,306.74a22.4,22.4,0,0,0-6.68-8.12,18.73,18.73,0,0,0-3.66-2.17c-2.08-.92-7-1.06-6.75-4.31a.5.5,0,0,0-1,0c-.26,3.79,4.15,4,6.75,5a20.42,20.42,0,0,1,10.49,10.14C791.17,307.82,792,307.31,791.77,306.74Z"/>
      <path class="cls-6" d="M778.56,267.88a4.16,4.16,0,0,0-1.65-2.79,11.68,11.68,0,0,0-4.84-1.93.52.52,0,0,0-.27,1,15.43,15.43,0,0,1,3.6,1.2c.66.34,2,1.33,2.16,2.27a.48.48,0,0,0,0,.28c.72,3.12-4.87,4-6.66,5.55a5,5,0,0,0-1.52,4.9c.12.63,1.08.36,1-.27C769.15,271.81,779.51,273.4,778.56,267.88Z"/>
      <path class="cls-6" d="M850.58,282.47a2.4,2.4,0,0,0-.32-2.36,1.92,1.92,0,0,0-.88-3c-.16-2.13-2.19-4-4.34-3.45a.52.52,0,1,0,.27,1,2.69,2.69,0,0,1,3.06,2.27q0,.11,0,.22a.49.49,0,0,0,.17.34.43.43,0,0,0,.3.53h0a.93.93,0,0,1,.59,1.51.5.5,0,0,0-.11.3.46.46,0,0,0-.07.65l.07.07a1.38,1.38,0,0,1,.36,1.54,2.09,2.09,0,0,0,0,1c.45.11.31.87.21,1.17a2,2,0,0,1-.86,1,.49.49,0,0,0-.16.67l.06.08a.5.5,0,0,0,.2.32c.57.41.37,1.45.08,2a2.23,2.23,0,0,1-1.7,1.12.55.55,0,0,0-.46.63h0a.5.5,0,0,0-.08.39,3.51,3.51,0,0,1,0,1.53.52.52,0,0,0,1,.27,4.69,4.69,0,0,0,.07-1.93,3.15,3.15,0,0,0,2.28-1.85,2.64,2.64,0,0,0-.26-2.69,2.89,2.89,0,0,0,1-1.83A1.92,1.92,0,0,0,850.58,282.47Z"/>
      <path class="cls-6" d="M856.07,317.66,852.25,305c-.79-2.61-1.31-5.64-3.84-7.14a.5.5,0,0,0-.5.86c2.79,1.66,3.36,6.48,4.23,9.35l3,9.82a.5.5,0,0,0,.93-.27Z"/>
      <path class="cls-6" d="M855.1,319.56c-.13-.63-1.1-.36-1,.27,1.13,5.28,2.19,10.75,0,15.9-.25.58.61,1.09.86.5C857.3,330.81,856.29,325.13,855.1,319.56Z"/>
      <path class="cls-6" d="M848.46,353.1a.48.48,0,0,0-.14-.32c-.32-4.77-.45-9.6-1.07-14.34a123.93,123.93,0,0,1-.61-15.68.5.5,0,0,0-1,0A112.58,112.58,0,0,0,846,337c.68,5.26.93,10.56,1.28,15.85a.48.48,0,0,0,.14.31q.49,8.7,1.43,17.36c.07.63,1.07.64,1,0Q848.95,361.83,848.46,353.1Z"/>
      <path class="cls-6" d="M797.85,313.39a9.17,9.17,0,0,1-2.89-.61c-.6-.23-.86.74-.27,1a10,10,0,0,0,3.16.65A.52.52,0,0,0,797.85,313.39Z"/>
      <path class="cls-6" d="M787.68,359.08a.53.53,0,0,0-.07-.22c-.2-7.07-1.72-14-2-21.08s.37-14-.54-21c-.08-.63-1.08-.64-1,0,.92,7,.3,14,.54,21s1.81,14.15,2,21.29a.47.47,0,0,0,.09.27l.47,4c.07.63,1.07.64,1,0Z"/>
      <path class="cls-6" d="M771.55,325.53a6.84,6.84,0,0,1-5-1.78A8,8,0,0,1,764.3,319c-.12-.63-1.08-.36-1,.27a8.66,8.66,0,0,0,2.83,5.48,7.81,7.81,0,0,0,5.34,1.79C772.17,326.5,772.17,325.5,771.55,325.53Z"/>
      <path class="cls-6" d="M783.58,378a.51.51,0,0,0-.11-.11.43.43,0,0,0,.52-.31v0a23.69,23.69,0,0,0,.32-8.61c-.09-.63-1-.36-1,.27a22.29,22.29,0,0,1-.32,8.07.48.48,0,0,0,.19.5c-.38,0-.77.33-.5.72,1.26,1.76,3.74,4.18,3.18,6.53a.52.52,0,0,0,1,.27C787.54,382.53,785.08,380.13,783.58,378Z"/>
      <path class="cls-6" d="M847.31,381.31a7.7,7.7,0,0,1-.64-4.45c.1-.63-.87-.9-1-.27a8.9,8.9,0,0,0,.74,5.22C846.71,382.42,847.58,381.91,847.31,381.31Z"/>
      <path class="cls-6" d="M838.17,372.14a.5.5,0,1,0-1,0c.08,3.17.67,6.3.87,9.47a.5.5,0,0,0,1,0C838.83,378.44,838.24,375.31,838.17,372.14Z"/>
      <path class="cls-6" d="M840.55,296.93a.52.52,0,0,1-.26-.64.52.52,0,0,0-1-.27,1.54,1.54,0,0,0,1,1.87C840.88,298.14,841.17,297.17,840.55,296.93Z"/>
      <path class="cls-14" d="M783.31,311.85a3.53,3.53,0,0,0-1.47-2.39.43.43,0,0,0-.08-.57,1.35,1.35,0,0,0-.28-.2.41.41,0,0,0,0-.2c-.26-3.46-.54-7.07-2.22-10.18-.61-1.12-2.4-4.31-4-3.52-.58.28-.07,1.14.5.86s2.1,2.26,2.27,2.53a12.88,12.88,0,0,1,1.3,2.88,31.54,31.54,0,0,1,1.14,7.43.48.48,0,0,0,0,.15.45.45,0,0,0-.23.56c-3.32.54-3.9,7.11-3.86,9.52a.46.46,0,0,0,.32.45.43.43,0,0,0,.23.26l.28.14c.57.29,1.08-.58.5-.86l-.28-.14h-.05a15.63,15.63,0,0,1,.53-4.32,13.75,13.75,0,0,1,.65-1.82c.5-1.14.68-2.24,2-2.27,1-.08,1.4.44,1.78,1.34a5.92,5.92,0,0,1,.32,1.37,20.45,20.45,0,0,1-.18,2.29c-.1,1.33-.23,2.6-.25,3.93a.49.49,0,0,0-.26,0l-.28.14c-.58.29-.07,1.15.5.86l.25-.13a.5.5,0,0,0,.78-.4C783.38,317.11,783.75,314.31,783.31,311.85Z"/>
      <path class="cls-6" d="M1206.35,265.46c-.61-2.29-2.67-1.25-4.32-.88-.94.21-2.35.63-3.34,0-.68-.4-1-1.58-1.47-2.24a4.28,4.28,0,0,0-2.31-2,2.47,2.47,0,0,0-2,.28,3.74,3.74,0,0,0-1,.93c-.74.9-.41.88-2,1.07-1.77.21-1.45-.18-2.65-1.15a3.45,3.45,0,0,0-1.09-.7,2.28,2.28,0,0,0-2.08.21c-.56.31-.06,1.17.5.86s2.23.69,2.76,1.11a11.23,11.23,0,0,0,1.14,1,2.94,2.94,0,0,0,1.71.5c2.2-.21,2.06-4,4.85-3,1.76.67,2,3.62,3.85,4.47a2.69,2.69,0,0,0,1.38.29c1.07-.08,4.56-2.45,5.05-.57a.52.52,0,0,0,1-.18Z"/>
      <path class="cls-6" d="M1182,266.63c-1.36.55-3.45,1.33-4,2.85-.65,1.75,1.31,2.12,1.64,3.53.15.63,1.11.36,1-.27-.22-.94-1-1.24-1.49-2-1-1.53,2.1-2.71,3.16-3.14C1182.81,267.36,1182.59,266.39,1182,266.63Z"/>
      <path class="cls-6" d="M1208.33,273.78c-.79-.25-2.63-.81-2.45-2,.1-.63-.86-.9-1-.27-.3,1.86,1.69,2.72,3.15,3.18A.5.5,0,0,0,1208.33,273.78Z"/>
      <path class="cls-6" d="M1207,280.87a.54.54,0,0,1-.18-.63.52.52,0,0,0-1-.27,1.56,1.56,0,0,0,.64,1.76C1207,282.11,1207.51,281.24,1207,280.87Z"/>
      <path class="cls-6" d="M1218.12,297.78c-2.88,1.1-6.52.56-9.56.56h-9.68a.5.5,0,0,0,0,1h10.65c2.88,0,6.12.45,8.86-.6C1219,298.52,1218.72,297.55,1218.12,297.78Z"/>
      <path class="cls-6" d="M1220.59,285.95a4.39,4.39,0,0,0-2.81,4.94c.12.63,1.08.36,1-.27a3.36,3.36,0,0,1,2.11-3.71C1221.47,286.69,1221.21,285.72,1220.59,285.95Z"/>
      <path class="cls-6" d="M1183.8,298.79a98.76,98.76,0,0,1-17.71-1.31c-.63-.1-.9.86-.27,1a100.27,100.27,0,0,0,18,1.35.52.52,0,1,0,0-1Z"/>
      <path class="cls-6" d="M1165.32,285a4.58,4.58,0,0,0-5.69,2.25c-.25.58.61,1.09.86.5a3.63,3.63,0,0,1,4.12-1.94c1.89.58,2.46,3.24,1.62,4.8-.31.57.56,1.07.86.5C1168.19,289.1,1167.53,286,1165.32,285Z"/>
      <path class="cls-6" d="M1194.59,387.58h-8.08a.5.5,0,0,0,0,1h8.08a.5.5,0,0,0,0-1Z"/>
      <path class="cls-6" d="M1151.75,195.1c-1.59-1.47-4-1.07-6-.86a33,33,0,0,0-8.53,2.17.5.5,0,0,0-.22.17c-1.57.84-3.33,1.19-4.92,2-.57.29-.07,1.15.5.86,1.63-.82,3.45-1.16,5.06-2.06a.49.49,0,0,0,.14-.12,31.65,31.65,0,0,1,9.71-2.17c1.92-.1,3.6.3,4.51,2.14s2.06,5.27-.23,6.51a.45.45,0,0,0-.19.2,4,4,0,0,1-2,0c-.64-.08-.63.93,0,1a3.69,3.69,0,0,0,2.67-.23.5.5,0,0,0,.16-.21C1155.46,202.62,1154,197.18,1151.75,195.1Z"/>
      <path class="cls-6" d="M1174.66,297.25c-3.37-3.55-4.56-8.25-5.61-12.89a79,79,0,0,0-4-13,.49.49,0,0,0,0-.28c-1.53-7.12-2.69-14.44-4.75-21.43-1.53-5.21-4.34-10.07-9.54-12.24-.59-.25-.85.72-.27,1,6.11,2.55,8.36,9,9.72,15s2.55,11.83,3.82,17.74a.52.52,0,0,0,0,.42c2.12,5,3.25,10.14,4.55,15.38,1,4.06,2.41,8,5.34,11A.51.51,0,0,0,1174.66,297.25Z"/>
      <path class="cls-6" d="M1127.92,321.62a91.65,91.65,0,0,0-7.22-6c-.51-.39-1,.48-.5.86a89.15,89.15,0,0,1,7,5.89C1127.68,322.76,1128.39,322.06,1127.92,321.62Z"/>
      <path class="cls-6" d="M1226.7,334.63a27.87,27.87,0,0,1-10.73.73c-.64-.08-.63.92,0,1a28.55,28.55,0,0,0,11-.77.5.5,0,0,0-.27-1Z"/>
      <path class="cls-6" d="M1166,334.72a27.39,27.39,0,0,1-7.83,1,9.65,9.65,0,0,0-4.84.83c-.57.29-.07,1.16.5.86,2.17-1.11,4.62-.57,6.95-.72a26.2,26.2,0,0,0,5.48-1,.5.5,0,0,0-.26-1Z"/>
      <path class="cls-6" d="M1160.4,344.18a7.24,7.24,0,0,0-4,0,.52.52,0,0,0,.27,1h0a6.22,6.22,0,0,1,3.48,0,.52.52,0,1,0,.25-1Z"/>
      <path class="cls-6" d="M1223.27,342.18a7.47,7.47,0,0,0-4.24.14c-.61.2-.35,1.17.27,1a6.48,6.48,0,0,1,3.71-.14.52.52,0,1,0,.26-1Z"/>
      <path class="cls-6" d="M1144.41,225.81a6.3,6.3,0,0,0-2.24,5.54c.07.63,1.07.64,1,0a5.39,5.39,0,0,1,1.94-4.83C1145.59,226.1,1144.91,225.4,1144.41,225.81Z"/>
      <path class="cls-6" d="M1102,194.42a49.82,49.82,0,0,0-11.67-19.17c-5.83-6.21-12.06-12.19-20.14-15.27-6-2.28-18.81-6.65-29.65-7.73-6.91-.69-13.58,1.32-15.28,1.67-.63.13-.36,1.09.27,1,4.42-.92,8.2-2,13.46-1.82h.32c8.79,1.12,15.78,2.38,24.46,5.81,4.22,1.67,8.71,2.75,12.57,5.21a63.33,63.33,0,0,1,9.84,8.37c5.77,5.64,10.93,11.79,13.86,19.39a48.32,48.32,0,0,1,3.05,20.88,46.44,46.44,0,0,1-8.15,23.19.41.41,0,0,0,0,.43c-3.8,4.83-8.83,9.58-7.77,16.29.1.63,1.06.36,1-.27-1-6.39,4.17-11,7.72-15.58a.51.51,0,0,0,.08-.5A48.74,48.74,0,0,0,1102,194.42Z"/>
      <path class="cls-4" d="M463.06,52.41a4.8,4.8,0,0,0-4.63-2.5,6.09,6.09,0,0,0-1.86-2.27c-.33-4-3.54-7.8-7.72-7.49a14.23,14.23,0,0,0-8.41-7.34,9.21,9.21,0,0,0-4-.4A8.64,8.64,0,0,0,427,34.85a18.49,18.49,0,0,0-3.52,7.37c-.28,1-.56,2-.81,3a7.08,7.08,0,0,0-7.26,1.53,6.4,6.4,0,0,0-.1,9.05l.1.1a8.71,8.71,0,0,0,8.47,1.68c4.65,6.68,16.49,6.62,22.53.62l.21,0a10.3,10.3,0,0,0,5.27,1.11,11.73,11.73,0,0,0,2.58.87,6.4,6.4,0,0,0,1.14,1.19c3.83,3.07,8.89.66,10.42-3.52C466.8,55.63,465.16,53.1,463.06,52.41Zm-23.21-3.54c.18,0,1.24.28.13.25a1.53,1.53,0,0,1-.14-.25Zm-18.44.19C420.67,49.22,420.91,48.46,421.41,49.06Z"/>
      <path class="cls-6" d="M449.6,40.27c-1.24-.33-1.52,1.65-.29,2a8,8,0,0,1,5.83,8.34c-.11,1.28,1.87,1.57,2,.29A10.09,10.09,0,0,0,449.6,40.27Z"/>
      <path class="cls-6" d="M460.89,50.91c-1.21-.4-2,1.44-.78,1.84A3.91,3.91,0,1,1,457.38,60a1,1,0,0,0-.78,1.84,5.9,5.9,0,1,0,4.29-11Z"/>
      <path class="cls-4" d="M715.06,122.41a4.8,4.8,0,0,0-4.63-2.5,6.09,6.09,0,0,0-1.86-2.27c-.33-4-3.54-7.8-7.72-7.49a14.23,14.23,0,0,0-8.41-7.34,9.21,9.21,0,0,0-4-.4,8.64,8.64,0,0,0-9.45,2.44,18.49,18.49,0,0,0-3.52,7.37c-.28,1-.56,2-.81,3a7.08,7.08,0,0,0-7.26,1.53,6.4,6.4,0,0,0-.1,9.05l.1.1a8.71,8.71,0,0,0,8.47,1.68c4.65,6.68,16.49,6.62,22.53.62l.21,0a10.3,10.3,0,0,0,5.27,1.11,11.73,11.73,0,0,0,2.58.87,6.4,6.4,0,0,0,1.14,1.19c3.83,3.07,8.89.66,10.42-3.52C718.8,125.63,717.16,123.1,715.06,122.41Zm-23.21-3.54c.18,0,1.24.28.13.25a1.53,1.53,0,0,1-.14-.25Zm-18.44.19C672.67,119.22,672.91,118.46,673.41,119.06Z"/>
      <path class="cls-6" d="M701.6,110.27c-1.24-.33-1.52,1.65-.29,2a8,8,0,0,1,5.83,8.34c-.11,1.28,1.87,1.57,2,.29A10.09,10.09,0,0,0,701.6,110.27Z"/>
      <path class="cls-6" d="M712.89,120.91c-1.21-.4-2,1.44-.78,1.84a3.91,3.91,0,1,1-2.73,7.26,1,1,0,0,0-.78,1.84,5.9,5.9,0,1,0,4.29-11Z"/>
    </g>
  </g>
</svg>
